<?xml version="1.0" encoding="utf-8" standalone="no"?>
<!DOCTYPE svg PUBLIC "-//W3C//DTD SVG 1.1//EN"
  "http://www.w3.org/Graphics/SVG/1.1/DTD/svg11.dtd">
<svg xmlns:xlink="http://www.w3.org/1999/xlink" width="1442.803125pt" height="392.3025pt" viewBox="0 0 1442.803125 392.3025" xmlns="http://www.w3.org/2000/svg" version="1.1">
 <metadata>
  <rdf:RDF xmlns:dc="http://purl.org/dc/elements/1.1/" xmlns:cc="http://creativecommons.org/ns#" xmlns:rdf="http://www.w3.org/1999/02/22-rdf-syntax-ns#">
   <cc:Work>
    <dc:type rdf:resource="http://purl.org/dc/dcmitype/StillImage"/>
    <dc:date>2025-10-17T19:07:41.208249</dc:date>
    <dc:format>image/svg+xml</dc:format>
    <dc:creator>
     <cc:Agent>
      <dc:title>Matplotlib v3.10.6, https://matplotlib.org/</dc:title>
     </cc:Agent>
    </dc:creator>
   </cc:Work>
  </rdf:RDF>
 </metadata>
 <defs>
  <style type="text/css">*{stroke-linejoin: round; stroke-linecap: butt}</style>
 </defs>
 <g id="figure_1">
  <g id="patch_1">
   <path d="M 0 392.3025 
L 1442.803125 392.3025 
L 1442.803125 0 
L 0 0 
z
" style="fill: #ffffff"/>
  </g>
  <g id="axes_1">
   <g id="patch_2">
    <path d="M 40.603125 354.74625 
L 1435.603125 354.74625 
L 1435.603125 22.10625 
L 40.603125 22.10625 
z
" style="fill: #ffffff"/>
   </g>
   <g id="FillBetweenPolyCollection_1">
    <defs>
     <path id="m461ce9f796" d="M 40.603125 -52.67625 
L 40.603125 -52.67625 
L 59.203125 -52.67625 
L 77.803125 -52.67625 
L 96.403125 -52.67625 
L 115.003125 -52.67625 
L 133.603125 -52.67625 
L 152.203125 -52.67625 
L 170.803125 -52.67625 
L 189.403125 -52.67625 
L 208.003125 -52.67625 
L 226.603125 -90.5197 
L 245.203125 -188.222172 
L 263.803125 -236.7541 
L 282.403125 -244.332376 
L 301.003125 -247.966986 
L 319.603125 -328.050147 
L 338.203125 -260.023405 
L 356.803125 -150.513759 
L 375.403125 -76.159382 
L 394.003125 -52.67625 
L 412.603125 -52.67625 
L 431.203125 -52.67625 
L 449.803125 -52.67625 
L 468.403125 -52.67625 
L 487.003125 -52.67625 
L 505.603125 -52.67625 
L 524.203125 -52.67625 
L 542.803125 -52.67625 
L 561.403125 -52.67625 
L 580.003125 -52.67625 
L 598.603125 -52.67625 
L 617.203125 -52.67625 
L 635.803125 -52.67625 
L 654.403125 -52.67625 
L 673.003125 -52.67625 
L 691.603125 -52.67625 
L 710.203125 -52.67625 
L 728.803125 -52.67625 
L 747.403125 -52.67625 
L 766.003125 -52.67625 
L 784.603125 -52.67625 
L 803.203125 -52.67625 
L 821.803125 -52.67625 
L 840.403125 -52.67625 
L 859.003125 -52.67625 
L 877.603125 -52.67625 
L 896.203125 -52.67625 
L 914.803125 -52.67625 
L 933.403125 -52.67625 
L 952.003125 -52.67625 
L 970.603125 -52.67625 
L 989.203125 -52.67625 
L 1007.803125 -52.67625 
L 1026.403125 -52.67625 
L 1045.003125 -52.67625 
L 1063.603125 -52.67625 
L 1082.203125 -52.67625 
L 1100.803125 -52.67625 
L 1119.403125 -52.67625 
L 1138.003125 -52.67625 
L 1156.603125 -52.67625 
L 1175.203125 -52.67625 
L 1193.803125 -52.67625 
L 1212.403125 -52.67625 
L 1231.003125 -52.67625 
L 1249.603125 -52.67625 
L 1268.203125 -52.67625 
L 1286.803125 -52.67625 
L 1305.403125 -52.67625 
L 1324.003125 -52.67625 
L 1342.603125 -52.67625 
L 1361.203125 -52.67625 
L 1379.803125 -52.67625 
L 1398.403125 -52.67625 
L 1417.003125 -52.67625 
L 1435.603125 -52.67625 
L 1435.603125 -52.67625 
L 1435.603125 -52.67625 
L 1417.003125 -52.67625 
L 1398.403125 -52.67625 
L 1379.803125 -52.67625 
L 1361.203125 -52.67625 
L 1342.603125 -52.67625 
L 1324.003125 -52.67625 
L 1305.403125 -52.67625 
L 1286.803125 -52.67625 
L 1268.203125 -52.67625 
L 1249.603125 -52.67625 
L 1231.003125 -52.67625 
L 1212.403125 -52.67625 
L 1193.803125 -52.67625 
L 1175.203125 -52.67625 
L 1156.603125 -52.67625 
L 1138.003125 -52.67625 
L 1119.403125 -52.67625 
L 1100.803125 -52.67625 
L 1082.203125 -52.67625 
L 1063.603125 -52.67625 
L 1045.003125 -52.67625 
L 1026.403125 -52.67625 
L 1007.803125 -52.67625 
L 989.203125 -52.67625 
L 970.603125 -52.67625 
L 952.003125 -52.67625 
L 933.403125 -52.67625 
L 914.803125 -52.67625 
L 896.203125 -52.67625 
L 877.603125 -52.67625 
L 859.003125 -52.67625 
L 840.403125 -52.67625 
L 821.803125 -52.67625 
L 803.203125 -52.67625 
L 784.603125 -52.67625 
L 766.003125 -52.67625 
L 747.403125 -52.67625 
L 728.803125 -52.67625 
L 710.203125 -52.67625 
L 691.603125 -52.67625 
L 673.003125 -52.67625 
L 654.403125 -52.67625 
L 635.803125 -52.67625 
L 617.203125 -52.67625 
L 598.603125 -52.67625 
L 580.003125 -52.67625 
L 561.403125 -64.969312 
L 542.803125 -52.67625 
L 524.203125 -52.67625 
L 505.603125 -52.67625 
L 487.003125 -52.67625 
L 468.403125 -52.67625 
L 449.803125 -64.969312 
L 431.203125 -52.67625 
L 412.603125 -52.67625 
L 394.003125 -52.67625 
L 375.403125 -102.951488 
L 356.803125 -200.699973 
L 338.203125 -300.172376 
L 319.603125 -355.07625 
L 301.003125 -287.642671 
L 282.403125 -291.277281 
L 263.803125 -286.562495 
L 245.203125 -236.749931 
L 226.603125 -125.470354 
L 208.003125 -52.67625 
L 189.403125 -52.67625 
L 170.803125 -52.67625 
L 152.203125 -52.67625 
L 133.603125 -52.67625 
L 115.003125 -52.67625 
L 96.403125 -52.67625 
L 77.803125 -52.67625 
L 59.203125 -52.67625 
L 40.603125 -52.67625 
z
" style="stroke: #ab5c9a; stroke-opacity: 0.25"/>
    </defs>
    <g clip-path="url(#p11a258eec0)">
     <use xlink:href="#m461ce9f796" x="0" y="392.3025" style="fill: #ab5c9a; fill-opacity: 0.25; stroke: #ab5c9a; stroke-opacity: 0.25"/>
    </g>
   </g>
   <g id="FillBetweenPolyCollection_2">
    <defs>
     <path id="md547cbe3a4" d="M 40.603125 -52.67625 
L 40.603125 -52.67625 
L 59.203125 -52.67625 
L 77.803125 -52.67625 
L 96.403125 -52.67625 
L 115.003125 -52.67625 
L 133.603125 -52.67625 
L 152.203125 -52.67625 
L 170.803125 -52.67625 
L 189.403125 -52.67625 
L 208.003125 -52.67625 
L 226.603125 -52.67625 
L 245.203125 -52.67625 
L 263.803125 -52.67625 
L 282.403125 -62.738688 
L 301.003125 -102.76183 
L 319.603125 -115.121482 
L 338.203125 -152.760269 
L 356.803125 -182.426646 
L 375.403125 -244.332376 
L 394.003125 -289.628149 
L 412.603125 -258.150385 
L 431.203125 -179.724261 
L 449.803125 -92.41029 
L 468.403125 -73.488007 
L 487.003125 -57.602791 
L 505.603125 -52.67625 
L 524.203125 -52.67625 
L 542.803125 -52.67625 
L 561.403125 -52.67625 
L 580.003125 -52.67625 
L 598.603125 -52.67625 
L 617.203125 -52.67625 
L 635.803125 -52.67625 
L 654.403125 -52.67625 
L 673.003125 -52.67625 
L 691.603125 -52.67625 
L 710.203125 -52.67625 
L 728.803125 -52.67625 
L 747.403125 -52.67625 
L 766.003125 -52.67625 
L 784.603125 -52.67625 
L 803.203125 -52.67625 
L 821.803125 -52.67625 
L 840.403125 -52.67625 
L 859.003125 -52.67625 
L 877.603125 -52.67625 
L 896.203125 -52.67625 
L 914.803125 -52.67625 
L 933.403125 -52.67625 
L 952.003125 -52.67625 
L 970.603125 -52.67625 
L 989.203125 -52.67625 
L 1007.803125 -52.67625 
L 1026.403125 -52.67625 
L 1045.003125 -52.67625 
L 1063.603125 -52.67625 
L 1082.203125 -52.67625 
L 1100.803125 -52.67625 
L 1119.403125 -52.67625 
L 1138.003125 -52.67625 
L 1156.603125 -52.67625 
L 1175.203125 -52.67625 
L 1193.803125 -52.67625 
L 1212.403125 -52.67625 
L 1231.003125 -52.67625 
L 1249.603125 -52.67625 
L 1268.203125 -52.67625 
L 1286.803125 -52.67625 
L 1305.403125 -52.67625 
L 1324.003125 -52.67625 
L 1342.603125 -52.67625 
L 1361.203125 -52.67625 
L 1379.803125 -52.67625 
L 1398.403125 -52.67625 
L 1417.003125 -52.67625 
L 1435.603125 -52.67625 
L 1435.603125 -52.67625 
L 1435.603125 -52.67625 
L 1417.003125 -52.67625 
L 1398.403125 -52.67625 
L 1379.803125 -52.67625 
L 1361.203125 -52.67625 
L 1342.603125 -52.67625 
L 1324.003125 -52.67625 
L 1305.403125 -52.67625 
L 1286.803125 -52.67625 
L 1268.203125 -52.67625 
L 1249.603125 -52.67625 
L 1231.003125 -52.67625 
L 1212.403125 -52.67625 
L 1193.803125 -52.67625 
L 1175.203125 -52.67625 
L 1156.603125 -52.67625 
L 1138.003125 -52.67625 
L 1119.403125 -52.67625 
L 1100.803125 -52.67625 
L 1082.203125 -64.969312 
L 1063.603125 -52.67625 
L 1045.003125 -52.67625 
L 1026.403125 -52.67625 
L 1007.803125 -52.67625 
L 989.203125 -52.67625 
L 970.603125 -52.67625 
L 952.003125 -52.67625 
L 933.403125 -52.67625 
L 914.803125 -52.67625 
L 896.203125 -52.67625 
L 877.603125 -52.67625 
L 859.003125 -52.67625 
L 840.403125 -52.67625 
L 821.803125 -52.67625 
L 803.203125 -52.67625 
L 784.603125 -52.67625 
L 766.003125 -52.67625 
L 747.403125 -52.67625 
L 728.803125 -52.67625 
L 710.203125 -52.67625 
L 691.603125 -52.67625 
L 673.003125 -52.67625 
L 654.403125 -64.969312 
L 635.803125 -52.67625 
L 617.203125 -52.67625 
L 598.603125 -52.67625 
L 580.003125 -52.67625 
L 561.403125 -52.67625 
L 542.803125 -52.67625 
L 524.203125 -52.67625 
L 505.603125 -52.67625 
L 487.003125 -84.628894 
L 468.403125 -105.622863 
L 449.803125 -135.872826 
L 431.203125 -232.95478 
L 412.603125 -302.045395 
L 394.003125 -319.739878 
L 375.403125 -291.277281 
L 356.803125 -242.545457 
L 338.203125 -210.746525 
L 319.603125 -162.333881 
L 301.003125 -150.10741 
L 282.403125 -91.786059 
L 263.803125 -52.67625 
L 245.203125 -52.67625 
L 226.603125 -52.67625 
L 208.003125 -52.67625 
L 189.403125 -52.67625 
L 170.803125 -52.67625 
L 152.203125 -52.67625 
L 133.603125 -64.969312 
L 115.003125 -52.67625 
L 96.403125 -52.67625 
L 77.803125 -52.67625 
L 59.203125 -52.67625 
L 40.603125 -52.67625 
z
" style="stroke: #8a6ea8; stroke-opacity: 0.25"/>
    </defs>
    <g clip-path="url(#p11a258eec0)">
     <use xlink:href="#md547cbe3a4" x="0" y="392.3025" style="fill: #8a6ea8; fill-opacity: 0.25; stroke: #8a6ea8; stroke-opacity: 0.25"/>
    </g>
   </g>
   <g id="FillBetweenPolyCollection_3">
    <defs>
     <path id="m682e654ec0" d="M 40.603125 -52.67625 
L 40.603125 -52.67625 
L 59.203125 -52.67625 
L 77.803125 -52.67625 
L 96.403125 -52.67625 
L 115.003125 -52.67625 
L 133.603125 -52.67625 
L 152.203125 -52.67625 
L 170.803125 -52.67625 
L 189.403125 -52.67625 
L 208.003125 -52.67625 
L 226.603125 -52.67625 
L 245.203125 -56.459825 
L 263.803125 -69.169698 
L 282.403125 -68.042577 
L 301.003125 -78.850284 
L 319.603125 -68.042577 
L 338.203125 -96.681889 
L 356.803125 -92.41029 
L 375.403125 -101.154015 
L 394.003125 -108.908361 
L 412.603125 -119.781105 
L 431.203125 -159.399637 
L 449.803125 -157.167274 
L 468.403125 -203.323226 
L 487.003125 -182.867068 
L 505.603125 -225.036566 
L 524.203125 -300.332191 
L 542.803125 -296.198874 
L 561.403125 -182.867068 
L 580.003125 -121.40176 
L 598.603125 -90.5197 
L 617.203125 -65.763267 
L 635.803125 -52.67625 
L 654.403125 -52.67625 
L 673.003125 -56.459825 
L 691.603125 -52.67625 
L 710.203125 -52.67625 
L 728.803125 -52.67625 
L 747.403125 -52.67625 
L 766.003125 -52.67625 
L 784.603125 -52.67625 
L 803.203125 -57.602791 
L 821.803125 -57.602791 
L 840.403125 -57.602791 
L 859.003125 -57.602791 
L 877.603125 -52.67625 
L 896.203125 -52.67625 
L 914.803125 -52.67625 
L 933.403125 -52.67625 
L 952.003125 -52.67625 
L 970.603125 -52.67625 
L 989.203125 -52.67625 
L 1007.803125 -52.67625 
L 1026.403125 -52.67625 
L 1045.003125 -52.67625 
L 1063.603125 -52.67625 
L 1082.203125 -52.67625 
L 1100.803125 -52.67625 
L 1119.403125 -52.67625 
L 1138.003125 -52.67625 
L 1156.603125 -52.67625 
L 1175.203125 -52.67625 
L 1193.803125 -52.67625 
L 1212.403125 -52.67625 
L 1231.003125 -52.67625 
L 1249.603125 -52.67625 
L 1268.203125 -52.67625 
L 1286.803125 -52.67625 
L 1305.403125 -52.67625 
L 1324.003125 -52.67625 
L 1342.603125 -52.67625 
L 1361.203125 -52.67625 
L 1379.803125 -52.67625 
L 1398.403125 -52.67625 
L 1417.003125 -52.67625 
L 1435.603125 -52.67625 
L 1435.603125 -64.969312 
L 1435.603125 -64.969312 
L 1417.003125 -64.969312 
L 1398.403125 -77.262373 
L 1379.803125 -77.262373 
L 1361.203125 -64.969312 
L 1342.603125 -64.969312 
L 1324.003125 -77.262373 
L 1305.403125 -77.262373 
L 1286.803125 -64.969312 
L 1268.203125 -64.969312 
L 1249.603125 -64.969312 
L 1231.003125 -64.969312 
L 1212.403125 -64.969312 
L 1193.803125 -77.262373 
L 1175.203125 -64.969312 
L 1156.603125 -77.262373 
L 1138.003125 -77.262373 
L 1119.403125 -77.262373 
L 1100.803125 -64.969312 
L 1082.203125 -64.969312 
L 1063.603125 -77.262373 
L 1045.003125 -64.969312 
L 1026.403125 -77.262373 
L 1007.803125 -64.969312 
L 989.203125 -77.262373 
L 970.603125 -64.969312 
L 952.003125 -77.262373 
L 933.403125 -77.262373 
L 914.803125 -77.262373 
L 896.203125 -77.262373 
L 877.603125 -77.262373 
L 859.003125 -84.628894 
L 840.403125 -84.628894 
L 821.803125 -84.628894 
L 803.203125 -84.628894 
L 784.603125 -64.969312 
L 766.003125 -77.262373 
L 747.403125 -77.262373 
L 728.803125 -77.262373 
L 710.203125 -64.969312 
L 691.603125 -77.262373 
L 673.003125 -73.478798 
L 654.403125 -64.969312 
L 635.803125 -64.969312 
L 617.203125 -88.761479 
L 598.603125 -125.470354 
L 580.003125 -168.346665 
L 561.403125 -229.811973 
L 542.803125 -325.462214 
L 524.203125 -333.621959 
L 505.603125 -273.693906 
L 487.003125 -229.811973 
L 468.403125 -258.528061 
L 449.803125 -206.33952 
L 431.203125 -216.400219 
L 412.603125 -169.967319 
L 394.003125 -156.25394 
L 375.403125 -151.715225 
L 356.803125 -135.872826 
L 338.203125 -143.894288 
L 319.603125 -98.775231 
L 301.003125 -124.846709 
L 282.403125 -98.775231 
L 263.803125 -109.941171 
L 245.203125 -73.478798 
L 226.603125 -52.67625 
L 208.003125 -52.67625 
L 189.403125 -64.969312 
L 170.803125 -64.969312 
L 152.203125 -77.262373 
L 133.603125 -77.262373 
L 115.003125 -64.969312 
L 96.403125 -77.262373 
L 77.803125 -64.969312 
L 59.203125 -64.969312 
L 40.603125 -52.67625 
z
" style="stroke: #88acd7; stroke-opacity: 0.25"/>
    </defs>
    <g clip-path="url(#p11a258eec0)">
     <use xlink:href="#m682e654ec0" x="0" y="392.3025" style="fill: #88acd7; fill-opacity: 0.25; stroke: #88acd7; stroke-opacity: 0.25"/>
    </g>
   </g>
   <g id="FillBetweenPolyCollection_4">
    <defs>
     <path id="m3c926f9714" d="M 40.603125 -52.67625 
L 40.603125 -52.67625 
L 59.203125 -52.67625 
L 77.803125 -52.67625 
L 96.403125 -52.67625 
L 115.003125 -52.67625 
L 133.603125 -52.67625 
L 152.203125 -52.67625 
L 170.803125 -52.67625 
L 189.403125 -52.67625 
L 208.003125 -52.67625 
L 226.603125 -52.67625 
L 245.203125 -52.67625 
L 263.803125 -52.67625 
L 282.403125 -52.67625 
L 301.003125 -52.67625 
L 319.603125 -52.67625 
L 338.203125 -57.602791 
L 356.803125 -52.67625 
L 375.403125 -52.67625 
L 394.003125 -52.67625 
L 412.603125 -52.67625 
L 431.203125 -52.67625 
L 449.803125 -52.67625 
L 468.403125 -57.602791 
L 487.003125 -52.67625 
L 505.603125 -52.67625 
L 524.203125 -62.738688 
L 542.803125 -60.922974 
L 561.403125 -71.201409 
L 580.003125 -111.994394 
L 598.603125 -98.412425 
L 617.203125 -113.509421 
L 635.803125 -126.116545 
L 654.403125 -130.969301 
L 673.003125 -134.169061 
L 691.603125 -167.549754 
L 710.203125 -135.949127 
L 728.803125 -167.549754 
L 747.403125 -147.227786 
L 766.003125 -188.222172 
L 784.603125 -175.92911 
L 803.203125 -253.955444 
L 821.803125 -309.727553 
L 840.403125 -207.99598 
L 859.003125 -125.036369 
L 877.603125 -106.360134 
L 896.203125 -84.737279 
L 914.803125 -56.459825 
L 933.403125 -56.459825 
L 952.003125 -52.67625 
L 970.603125 -52.67625 
L 989.203125 -52.67625 
L 1007.803125 -52.67625 
L 1026.403125 -52.67625 
L 1045.003125 -52.67625 
L 1063.603125 -52.67625 
L 1082.203125 -52.67625 
L 1100.803125 -52.67625 
L 1119.403125 -52.67625 
L 1138.003125 -52.67625 
L 1156.603125 -52.67625 
L 1175.203125 -52.67625 
L 1193.803125 -52.67625 
L 1212.403125 -52.67625 
L 1231.003125 -52.67625 
L 1249.603125 -52.67625 
L 1268.203125 -52.67625 
L 1286.803125 -52.67625 
L 1305.403125 -52.67625 
L 1324.003125 -52.67625 
L 1342.603125 -52.67625 
L 1361.203125 -52.67625 
L 1379.803125 -52.67625 
L 1398.403125 -52.67625 
L 1417.003125 -52.67625 
L 1435.603125 -52.67625 
L 1435.603125 -52.67625 
L 1435.603125 -52.67625 
L 1417.003125 -52.67625 
L 1398.403125 -52.67625 
L 1379.803125 -52.67625 
L 1361.203125 -52.67625 
L 1342.603125 -52.67625 
L 1324.003125 -52.67625 
L 1305.403125 -52.67625 
L 1286.803125 -52.67625 
L 1268.203125 -52.67625 
L 1249.603125 -52.67625 
L 1231.003125 -52.67625 
L 1212.403125 -52.67625 
L 1193.803125 -52.67625 
L 1175.203125 -52.67625 
L 1156.603125 -52.67625 
L 1138.003125 -52.67625 
L 1119.403125 -77.262373 
L 1100.803125 -52.67625 
L 1082.203125 -52.67625 
L 1063.603125 -52.67625 
L 1045.003125 -52.67625 
L 1026.403125 -52.67625 
L 1007.803125 -52.67625 
L 989.203125 -52.67625 
L 970.603125 -52.67625 
L 952.003125 -64.969312 
L 933.403125 -73.478798 
L 914.803125 -73.478798 
L 896.203125 -118.959714 
L 877.603125 -146.509105 
L 859.003125 -164.712055 
L 840.403125 -253.855307 
L 821.803125 -336.519659 
L 803.203125 -293.947275 
L 784.603125 -224.456869 
L 766.003125 -236.749931 
L 747.403125 -191.692885 
L 728.803125 -220.543164 
L 710.203125 -178.385421 
L 691.603125 -220.543164 
L 673.003125 -180.165486 
L 654.403125 -183.365247 
L 635.803125 -175.924941 
L 617.203125 -163.945942 
L 598.603125 -142.163752 
L 580.003125 -165.460969 
L 561.403125 -107.90946 
L 542.803125 -81.308711 
L 524.203125 -91.786059 
L 505.603125 -77.262373 
L 487.003125 -64.969312 
L 468.403125 -84.628894 
L 449.803125 -52.67625 
L 431.203125 -64.969312 
L 412.603125 -64.969312 
L 394.003125 -52.67625 
L 375.403125 -52.67625 
L 356.803125 -52.67625 
L 338.203125 -84.628894 
L 319.603125 -64.969312 
L 301.003125 -77.262373 
L 282.403125 -77.262373 
L 263.803125 -64.969312 
L 245.203125 -77.262373 
L 226.603125 -64.969312 
L 208.003125 -77.262373 
L 189.403125 -64.969312 
L 170.803125 -77.262373 
L 152.203125 -64.969312 
L 133.603125 -77.262373 
L 115.003125 -64.969312 
L 96.403125 -64.969312 
L 77.803125 -77.262373 
L 59.203125 -52.67625 
L 40.603125 -52.67625 
z
" style="stroke: #8eced8; stroke-opacity: 0.25"/>
    </defs>
    <g clip-path="url(#p11a258eec0)">
     <use xlink:href="#m3c926f9714" x="0" y="392.3025" style="fill: #8eced8; fill-opacity: 0.25; stroke: #8eced8; stroke-opacity: 0.25"/>
    </g>
   </g>
   <g id="matplotlib.axis_1">
    <g id="xtick_1">
     <g id="line2d_1">
      <defs>
       <path id="m35f85af66e" d="M 0 0 
L 0 3.5 
" style="stroke: #000000; stroke-width: 0.8"/>
      </defs>
      <g>
       <use xlink:href="#m35f85af66e" x="180.103125" y="354.74625" style="stroke: #000000; stroke-width: 0.8"/>
      </g>
     </g>
     <g id="text_1">
      <!-- 0 -->
      <g transform="translate(176.921875 369.344687) scale(0.1 -0.1)">
       <defs>
        <path id="DejaVuSans-30" d="M 2034 4250 
Q 1547 4250 1301 3770 
Q 1056 3291 1056 2328 
Q 1056 1369 1301 889 
Q 1547 409 2034 409 
Q 2525 409 2770 889 
Q 3016 1369 3016 2328 
Q 3016 3291 2770 3770 
Q 2525 4250 2034 4250 
z
M 2034 4750 
Q 2819 4750 3233 4129 
Q 3647 3509 3647 2328 
Q 3647 1150 3233 529 
Q 2819 -91 2034 -91 
Q 1250 -91 836 529 
Q 422 1150 422 2328 
Q 422 3509 836 4129 
Q 1250 4750 2034 4750 
z
" transform="scale(0.015625)"/>
       </defs>
       <use xlink:href="#DejaVuSans-30"/>
      </g>
     </g>
    </g>
    <g id="xtick_2">
     <g id="line2d_2">
      <g>
       <use xlink:href="#m35f85af66e" x="294.803125" y="354.74625" style="stroke: #000000; stroke-width: 0.8"/>
      </g>
     </g>
     <g id="text_2">
      <!-- 1.25 -->
      <g transform="translate(283.670313 369.344687) scale(0.1 -0.1)">
       <defs>
        <path id="DejaVuSans-31" d="M 794 531 
L 1825 531 
L 1825 4091 
L 703 3866 
L 703 4441 
L 1819 4666 
L 2450 4666 
L 2450 531 
L 3481 531 
L 3481 0 
L 794 0 
L 794 531 
z
" transform="scale(0.015625)"/>
        <path id="DejaVuSans-2e" d="M 684 794 
L 1344 794 
L 1344 0 
L 684 0 
L 684 794 
z
" transform="scale(0.015625)"/>
        <path id="DejaVuSans-32" d="M 1228 531 
L 3431 531 
L 3431 0 
L 469 0 
L 469 531 
Q 828 903 1448 1529 
Q 2069 2156 2228 2338 
Q 2531 2678 2651 2914 
Q 2772 3150 2772 3378 
Q 2772 3750 2511 3984 
Q 2250 4219 1831 4219 
Q 1534 4219 1204 4116 
Q 875 4013 500 3803 
L 500 4441 
Q 881 4594 1212 4672 
Q 1544 4750 1819 4750 
Q 2544 4750 2975 4387 
Q 3406 4025 3406 3419 
Q 3406 3131 3298 2873 
Q 3191 2616 2906 2266 
Q 2828 2175 2409 1742 
Q 1991 1309 1228 531 
z
" transform="scale(0.015625)"/>
        <path id="DejaVuSans-35" d="M 691 4666 
L 3169 4666 
L 3169 4134 
L 1269 4134 
L 1269 2991 
Q 1406 3038 1543 3061 
Q 1681 3084 1819 3084 
Q 2600 3084 3056 2656 
Q 3513 2228 3513 1497 
Q 3513 744 3044 326 
Q 2575 -91 1722 -91 
Q 1428 -91 1123 -41 
Q 819 9 494 109 
L 494 744 
Q 775 591 1075 516 
Q 1375 441 1709 441 
Q 2250 441 2565 725 
Q 2881 1009 2881 1497 
Q 2881 1984 2565 2268 
Q 2250 2553 1709 2553 
Q 1456 2553 1204 2497 
Q 953 2441 691 2322 
L 691 4666 
z
" transform="scale(0.015625)"/>
       </defs>
       <use xlink:href="#DejaVuSans-31"/>
       <use xlink:href="#DejaVuSans-2e" transform="translate(63.623047 0)"/>
       <use xlink:href="#DejaVuSans-32" transform="translate(95.410156 0)"/>
       <use xlink:href="#DejaVuSans-35" transform="translate(159.033203 0)"/>
      </g>
     </g>
    </g>
    <g id="xtick_3">
     <g id="line2d_3">
      <g>
       <use xlink:href="#m35f85af66e" x="366.103125" y="354.74625" style="stroke: #000000; stroke-width: 0.8"/>
      </g>
     </g>
     <g id="text_3">
      <!-- 2 -->
      <g transform="translate(362.921875 369.344687) scale(0.1 -0.1)">
       <use xlink:href="#DejaVuSans-32"/>
      </g>
     </g>
    </g>
    <g id="xtick_4">
     <g id="line2d_4">
      <g>
       <use xlink:href="#m35f85af66e" x="505.603125" y="354.74625" style="stroke: #000000; stroke-width: 0.8"/>
      </g>
     </g>
     <g id="text_4">
      <!-- 3.5 -->
      <g transform="translate(497.651562 369.344687) scale(0.1 -0.1)">
       <defs>
        <path id="DejaVuSans-33" d="M 2597 2516 
Q 3050 2419 3304 2112 
Q 3559 1806 3559 1356 
Q 3559 666 3084 287 
Q 2609 -91 1734 -91 
Q 1441 -91 1130 -33 
Q 819 25 488 141 
L 488 750 
Q 750 597 1062 519 
Q 1375 441 1716 441 
Q 2309 441 2620 675 
Q 2931 909 2931 1356 
Q 2931 1769 2642 2001 
Q 2353 2234 1838 2234 
L 1294 2234 
L 1294 2753 
L 1863 2753 
Q 2328 2753 2575 2939 
Q 2822 3125 2822 3475 
Q 2822 3834 2567 4026 
Q 2313 4219 1838 4219 
Q 1578 4219 1281 4162 
Q 984 4106 628 3988 
L 628 4550 
Q 988 4650 1302 4700 
Q 1616 4750 1894 4750 
Q 2613 4750 3031 4423 
Q 3450 4097 3450 3541 
Q 3450 3153 3228 2886 
Q 3006 2619 2597 2516 
z
" transform="scale(0.015625)"/>
       </defs>
       <use xlink:href="#DejaVuSans-33"/>
       <use xlink:href="#DejaVuSans-2e" transform="translate(63.623047 0)"/>
       <use xlink:href="#DejaVuSans-35" transform="translate(95.410156 0)"/>
      </g>
     </g>
    </g>
    <g id="xtick_5">
     <g id="line2d_5">
      <g>
       <use xlink:href="#m35f85af66e" x="784.603125" y="354.74625" style="stroke: #000000; stroke-width: 0.8"/>
      </g>
     </g>
     <g id="text_5">
      <!-- 6.5 -->
      <g transform="translate(776.651562 369.344687) scale(0.1 -0.1)">
       <defs>
        <path id="DejaVuSans-36" d="M 2113 2584 
Q 1688 2584 1439 2293 
Q 1191 2003 1191 1497 
Q 1191 994 1439 701 
Q 1688 409 2113 409 
Q 2538 409 2786 701 
Q 3034 994 3034 1497 
Q 3034 2003 2786 2293 
Q 2538 2584 2113 2584 
z
M 3366 4563 
L 3366 3988 
Q 3128 4100 2886 4159 
Q 2644 4219 2406 4219 
Q 1781 4219 1451 3797 
Q 1122 3375 1075 2522 
Q 1259 2794 1537 2939 
Q 1816 3084 2150 3084 
Q 2853 3084 3261 2657 
Q 3669 2231 3669 1497 
Q 3669 778 3244 343 
Q 2819 -91 2113 -91 
Q 1303 -91 875 529 
Q 447 1150 447 2328 
Q 447 3434 972 4092 
Q 1497 4750 2381 4750 
Q 2619 4750 2861 4703 
Q 3103 4656 3366 4563 
z
" transform="scale(0.015625)"/>
       </defs>
       <use xlink:href="#DejaVuSans-36"/>
       <use xlink:href="#DejaVuSans-2e" transform="translate(63.623047 0)"/>
       <use xlink:href="#DejaVuSans-35" transform="translate(95.410156 0)"/>
      </g>
     </g>
    </g>
    <g id="text_6">
     <!-- Time from odor onset (s) -->
     <g transform="translate(676.15625 383.022812) scale(0.1 -0.1)">
      <defs>
       <path id="DejaVuSans-54" d="M -19 4666 
L 3928 4666 
L 3928 4134 
L 2272 4134 
L 2272 0 
L 1638 0 
L 1638 4134 
L -19 4134 
L -19 4666 
z
" transform="scale(0.015625)"/>
       <path id="DejaVuSans-69" d="M 603 3500 
L 1178 3500 
L 1178 0 
L 603 0 
L 603 3500 
z
M 603 4863 
L 1178 4863 
L 1178 4134 
L 603 4134 
L 603 4863 
z
" transform="scale(0.015625)"/>
       <path id="DejaVuSans-6d" d="M 3328 2828 
Q 3544 3216 3844 3400 
Q 4144 3584 4550 3584 
Q 5097 3584 5394 3201 
Q 5691 2819 5691 2113 
L 5691 0 
L 5113 0 
L 5113 2094 
Q 5113 2597 4934 2840 
Q 4756 3084 4391 3084 
Q 3944 3084 3684 2787 
Q 3425 2491 3425 1978 
L 3425 0 
L 2847 0 
L 2847 2094 
Q 2847 2600 2669 2842 
Q 2491 3084 2119 3084 
Q 1678 3084 1418 2786 
Q 1159 2488 1159 1978 
L 1159 0 
L 581 0 
L 581 3500 
L 1159 3500 
L 1159 2956 
Q 1356 3278 1631 3431 
Q 1906 3584 2284 3584 
Q 2666 3584 2933 3390 
Q 3200 3197 3328 2828 
z
" transform="scale(0.015625)"/>
       <path id="DejaVuSans-65" d="M 3597 1894 
L 3597 1613 
L 953 1613 
Q 991 1019 1311 708 
Q 1631 397 2203 397 
Q 2534 397 2845 478 
Q 3156 559 3463 722 
L 3463 178 
Q 3153 47 2828 -22 
Q 2503 -91 2169 -91 
Q 1331 -91 842 396 
Q 353 884 353 1716 
Q 353 2575 817 3079 
Q 1281 3584 2069 3584 
Q 2775 3584 3186 3129 
Q 3597 2675 3597 1894 
z
M 3022 2063 
Q 3016 2534 2758 2815 
Q 2500 3097 2075 3097 
Q 1594 3097 1305 2825 
Q 1016 2553 972 2059 
L 3022 2063 
z
" transform="scale(0.015625)"/>
       <path id="DejaVuSans-20" transform="scale(0.015625)"/>
       <path id="DejaVuSans-66" d="M 2375 4863 
L 2375 4384 
L 1825 4384 
Q 1516 4384 1395 4259 
Q 1275 4134 1275 3809 
L 1275 3500 
L 2222 3500 
L 2222 3053 
L 1275 3053 
L 1275 0 
L 697 0 
L 697 3053 
L 147 3053 
L 147 3500 
L 697 3500 
L 697 3744 
Q 697 4328 969 4595 
Q 1241 4863 1831 4863 
L 2375 4863 
z
" transform="scale(0.015625)"/>
       <path id="DejaVuSans-72" d="M 2631 2963 
Q 2534 3019 2420 3045 
Q 2306 3072 2169 3072 
Q 1681 3072 1420 2755 
Q 1159 2438 1159 1844 
L 1159 0 
L 581 0 
L 581 3500 
L 1159 3500 
L 1159 2956 
Q 1341 3275 1631 3429 
Q 1922 3584 2338 3584 
Q 2397 3584 2469 3576 
Q 2541 3569 2628 3553 
L 2631 2963 
z
" transform="scale(0.015625)"/>
       <path id="DejaVuSans-6f" d="M 1959 3097 
Q 1497 3097 1228 2736 
Q 959 2375 959 1747 
Q 959 1119 1226 758 
Q 1494 397 1959 397 
Q 2419 397 2687 759 
Q 2956 1122 2956 1747 
Q 2956 2369 2687 2733 
Q 2419 3097 1959 3097 
z
M 1959 3584 
Q 2709 3584 3137 3096 
Q 3566 2609 3566 1747 
Q 3566 888 3137 398 
Q 2709 -91 1959 -91 
Q 1206 -91 779 398 
Q 353 888 353 1747 
Q 353 2609 779 3096 
Q 1206 3584 1959 3584 
z
" transform="scale(0.015625)"/>
       <path id="DejaVuSans-64" d="M 2906 2969 
L 2906 4863 
L 3481 4863 
L 3481 0 
L 2906 0 
L 2906 525 
Q 2725 213 2448 61 
Q 2172 -91 1784 -91 
Q 1150 -91 751 415 
Q 353 922 353 1747 
Q 353 2572 751 3078 
Q 1150 3584 1784 3584 
Q 2172 3584 2448 3432 
Q 2725 3281 2906 2969 
z
M 947 1747 
Q 947 1113 1208 752 
Q 1469 391 1925 391 
Q 2381 391 2643 752 
Q 2906 1113 2906 1747 
Q 2906 2381 2643 2742 
Q 2381 3103 1925 3103 
Q 1469 3103 1208 2742 
Q 947 2381 947 1747 
z
" transform="scale(0.015625)"/>
       <path id="DejaVuSans-6e" d="M 3513 2113 
L 3513 0 
L 2938 0 
L 2938 2094 
Q 2938 2591 2744 2837 
Q 2550 3084 2163 3084 
Q 1697 3084 1428 2787 
Q 1159 2491 1159 1978 
L 1159 0 
L 581 0 
L 581 3500 
L 1159 3500 
L 1159 2956 
Q 1366 3272 1645 3428 
Q 1925 3584 2291 3584 
Q 2894 3584 3203 3211 
Q 3513 2838 3513 2113 
z
" transform="scale(0.015625)"/>
       <path id="DejaVuSans-73" d="M 2834 3397 
L 2834 2853 
Q 2591 2978 2328 3040 
Q 2066 3103 1784 3103 
Q 1356 3103 1142 2972 
Q 928 2841 928 2578 
Q 928 2378 1081 2264 
Q 1234 2150 1697 2047 
L 1894 2003 
Q 2506 1872 2764 1633 
Q 3022 1394 3022 966 
Q 3022 478 2636 193 
Q 2250 -91 1575 -91 
Q 1294 -91 989 -36 
Q 684 19 347 128 
L 347 722 
Q 666 556 975 473 
Q 1284 391 1588 391 
Q 1994 391 2212 530 
Q 2431 669 2431 922 
Q 2431 1156 2273 1281 
Q 2116 1406 1581 1522 
L 1381 1569 
Q 847 1681 609 1914 
Q 372 2147 372 2553 
Q 372 3047 722 3315 
Q 1072 3584 1716 3584 
Q 2034 3584 2315 3537 
Q 2597 3491 2834 3397 
z
" transform="scale(0.015625)"/>
       <path id="DejaVuSans-74" d="M 1172 4494 
L 1172 3500 
L 2356 3500 
L 2356 3053 
L 1172 3053 
L 1172 1153 
Q 1172 725 1289 603 
Q 1406 481 1766 481 
L 2356 481 
L 2356 0 
L 1766 0 
Q 1100 0 847 248 
Q 594 497 594 1153 
L 594 3053 
L 172 3053 
L 172 3500 
L 594 3500 
L 594 4494 
L 1172 4494 
z
" transform="scale(0.015625)"/>
       <path id="DejaVuSans-28" d="M 1984 4856 
Q 1566 4138 1362 3434 
Q 1159 2731 1159 2009 
Q 1159 1288 1364 580 
Q 1569 -128 1984 -844 
L 1484 -844 
Q 1016 -109 783 600 
Q 550 1309 550 2009 
Q 550 2706 781 3412 
Q 1013 4119 1484 4856 
L 1984 4856 
z
" transform="scale(0.015625)"/>
       <path id="DejaVuSans-29" d="M 513 4856 
L 1013 4856 
Q 1481 4119 1714 3412 
Q 1947 2706 1947 2009 
Q 1947 1309 1714 600 
Q 1481 -109 1013 -844 
L 513 -844 
Q 928 -128 1133 580 
Q 1338 1288 1338 2009 
Q 1338 2731 1133 3434 
Q 928 4138 513 4856 
z
" transform="scale(0.015625)"/>
      </defs>
      <use xlink:href="#DejaVuSans-54"/>
      <use xlink:href="#DejaVuSans-69" transform="translate(57.958984 0)"/>
      <use xlink:href="#DejaVuSans-6d" transform="translate(85.742188 0)"/>
      <use xlink:href="#DejaVuSans-65" transform="translate(183.154297 0)"/>
      <use xlink:href="#DejaVuSans-20" transform="translate(244.677734 0)"/>
      <use xlink:href="#DejaVuSans-66" transform="translate(276.464844 0)"/>
      <use xlink:href="#DejaVuSans-72" transform="translate(311.669922 0)"/>
      <use xlink:href="#DejaVuSans-6f" transform="translate(350.533203 0)"/>
      <use xlink:href="#DejaVuSans-6d" transform="translate(411.714844 0)"/>
      <use xlink:href="#DejaVuSans-20" transform="translate(509.126953 0)"/>
      <use xlink:href="#DejaVuSans-6f" transform="translate(540.914062 0)"/>
      <use xlink:href="#DejaVuSans-64" transform="translate(602.095703 0)"/>
      <use xlink:href="#DejaVuSans-6f" transform="translate(665.572266 0)"/>
      <use xlink:href="#DejaVuSans-72" transform="translate(726.753906 0)"/>
      <use xlink:href="#DejaVuSans-20" transform="translate(767.867188 0)"/>
      <use xlink:href="#DejaVuSans-6f" transform="translate(799.654297 0)"/>
      <use xlink:href="#DejaVuSans-6e" transform="translate(860.835938 0)"/>
      <use xlink:href="#DejaVuSans-73" transform="translate(924.214844 0)"/>
      <use xlink:href="#DejaVuSans-65" transform="translate(976.314453 0)"/>
      <use xlink:href="#DejaVuSans-74" transform="translate(1037.837891 0)"/>
      <use xlink:href="#DejaVuSans-20" transform="translate(1077.046875 0)"/>
      <use xlink:href="#DejaVuSans-28" transform="translate(1108.833984 0)"/>
      <use xlink:href="#DejaVuSans-73" transform="translate(1147.847656 0)"/>
      <use xlink:href="#DejaVuSans-29" transform="translate(1199.947266 0)"/>
     </g>
    </g>
   </g>
   <g id="matplotlib.axis_2">
    <g id="ytick_1">
     <g id="line2d_6">
      <defs>
       <path id="m0e8851e8b5" d="M 0 0 
L -3.5 0 
" style="stroke: #000000; stroke-width: 0.8"/>
      </defs>
      <g>
       <use xlink:href="#m0e8851e8b5" x="40.603125" y="339.62625" style="stroke: #000000; stroke-width: 0.8"/>
      </g>
     </g>
     <g id="text_7">
      <!-- 0 -->
      <g transform="translate(27.240625 343.425469) scale(0.1 -0.1)">
       <use xlink:href="#DejaVuSans-30"/>
      </g>
     </g>
    </g>
    <g id="ytick_2">
     <g id="line2d_7">
      <g>
       <use xlink:href="#m0e8851e8b5" x="40.603125" y="278.160942" style="stroke: #000000; stroke-width: 0.8"/>
      </g>
     </g>
     <g id="text_8">
      <!-- 2 -->
      <g transform="translate(27.240625 281.960161) scale(0.1 -0.1)">
       <use xlink:href="#DejaVuSans-32"/>
      </g>
     </g>
    </g>
    <g id="ytick_3">
     <g id="line2d_8">
      <g>
       <use xlink:href="#m0e8851e8b5" x="40.603125" y="216.695634" style="stroke: #000000; stroke-width: 0.8"/>
      </g>
     </g>
     <g id="text_9">
      <!-- 4 -->
      <g transform="translate(27.240625 220.494852) scale(0.1 -0.1)">
       <defs>
        <path id="DejaVuSans-34" d="M 2419 4116 
L 825 1625 
L 2419 1625 
L 2419 4116 
z
M 2253 4666 
L 3047 4666 
L 3047 1625 
L 3713 1625 
L 3713 1100 
L 3047 1100 
L 3047 0 
L 2419 0 
L 2419 1100 
L 313 1100 
L 313 1709 
L 2253 4666 
z
" transform="scale(0.015625)"/>
       </defs>
       <use xlink:href="#DejaVuSans-34"/>
      </g>
     </g>
    </g>
    <g id="ytick_4">
     <g id="line2d_9">
      <g>
       <use xlink:href="#m0e8851e8b5" x="40.603125" y="155.230326" style="stroke: #000000; stroke-width: 0.8"/>
      </g>
     </g>
     <g id="text_10">
      <!-- 6 -->
      <g transform="translate(27.240625 159.029544) scale(0.1 -0.1)">
       <use xlink:href="#DejaVuSans-36"/>
      </g>
     </g>
    </g>
    <g id="ytick_5">
     <g id="line2d_10">
      <g>
       <use xlink:href="#m0e8851e8b5" x="40.603125" y="93.765017" style="stroke: #000000; stroke-width: 0.8"/>
      </g>
     </g>
     <g id="text_11">
      <!-- 8 -->
      <g transform="translate(27.240625 97.564236) scale(0.1 -0.1)">
       <defs>
        <path id="DejaVuSans-38" d="M 2034 2216 
Q 1584 2216 1326 1975 
Q 1069 1734 1069 1313 
Q 1069 891 1326 650 
Q 1584 409 2034 409 
Q 2484 409 2743 651 
Q 3003 894 3003 1313 
Q 3003 1734 2745 1975 
Q 2488 2216 2034 2216 
z
M 1403 2484 
Q 997 2584 770 2862 
Q 544 3141 544 3541 
Q 544 4100 942 4425 
Q 1341 4750 2034 4750 
Q 2731 4750 3128 4425 
Q 3525 4100 3525 3541 
Q 3525 3141 3298 2862 
Q 3072 2584 2669 2484 
Q 3125 2378 3379 2068 
Q 3634 1759 3634 1313 
Q 3634 634 3220 271 
Q 2806 -91 2034 -91 
Q 1263 -91 848 271 
Q 434 634 434 1313 
Q 434 1759 690 2068 
Q 947 2378 1403 2484 
z
M 1172 3481 
Q 1172 3119 1398 2916 
Q 1625 2713 2034 2713 
Q 2441 2713 2670 2916 
Q 2900 3119 2900 3481 
Q 2900 3844 2670 4047 
Q 2441 4250 2034 4250 
Q 1625 4250 1398 4047 
Q 1172 3844 1172 3481 
z
" transform="scale(0.015625)"/>
       </defs>
       <use xlink:href="#DejaVuSans-38"/>
      </g>
     </g>
    </g>
    <g id="ytick_6">
     <g id="line2d_11">
      <g>
       <use xlink:href="#m0e8851e8b5" x="40.603125" y="32.299709" style="stroke: #000000; stroke-width: 0.8"/>
      </g>
     </g>
     <g id="text_12">
      <!-- 10 -->
      <g transform="translate(20.878125 36.098928) scale(0.1 -0.1)">
       <use xlink:href="#DejaVuSans-31"/>
       <use xlink:href="#DejaVuSans-30" transform="translate(63.623047 0)"/>
      </g>
     </g>
    </g>
    <g id="text_13">
     <!-- Lick rate (licks/s) -->
     <g transform="translate(14.798438 230.798125) rotate(-90) scale(0.1 -0.1)">
      <defs>
       <path id="DejaVuSans-4c" d="M 628 4666 
L 1259 4666 
L 1259 531 
L 3531 531 
L 3531 0 
L 628 0 
L 628 4666 
z
" transform="scale(0.015625)"/>
       <path id="DejaVuSans-63" d="M 3122 3366 
L 3122 2828 
Q 2878 2963 2633 3030 
Q 2388 3097 2138 3097 
Q 1578 3097 1268 2742 
Q 959 2388 959 1747 
Q 959 1106 1268 751 
Q 1578 397 2138 397 
Q 2388 397 2633 464 
Q 2878 531 3122 666 
L 3122 134 
Q 2881 22 2623 -34 
Q 2366 -91 2075 -91 
Q 1284 -91 818 406 
Q 353 903 353 1747 
Q 353 2603 823 3093 
Q 1294 3584 2113 3584 
Q 2378 3584 2631 3529 
Q 2884 3475 3122 3366 
z
" transform="scale(0.015625)"/>
       <path id="DejaVuSans-6b" d="M 581 4863 
L 1159 4863 
L 1159 1991 
L 2875 3500 
L 3609 3500 
L 1753 1863 
L 3688 0 
L 2938 0 
L 1159 1709 
L 1159 0 
L 581 0 
L 581 4863 
z
" transform="scale(0.015625)"/>
       <path id="DejaVuSans-61" d="M 2194 1759 
Q 1497 1759 1228 1600 
Q 959 1441 959 1056 
Q 959 750 1161 570 
Q 1363 391 1709 391 
Q 2188 391 2477 730 
Q 2766 1069 2766 1631 
L 2766 1759 
L 2194 1759 
z
M 3341 1997 
L 3341 0 
L 2766 0 
L 2766 531 
Q 2569 213 2275 61 
Q 1981 -91 1556 -91 
Q 1019 -91 701 211 
Q 384 513 384 1019 
Q 384 1609 779 1909 
Q 1175 2209 1959 2209 
L 2766 2209 
L 2766 2266 
Q 2766 2663 2505 2880 
Q 2244 3097 1772 3097 
Q 1472 3097 1187 3025 
Q 903 2953 641 2809 
L 641 3341 
Q 956 3463 1253 3523 
Q 1550 3584 1831 3584 
Q 2591 3584 2966 3190 
Q 3341 2797 3341 1997 
z
" transform="scale(0.015625)"/>
       <path id="DejaVuSans-6c" d="M 603 4863 
L 1178 4863 
L 1178 0 
L 603 0 
L 603 4863 
z
" transform="scale(0.015625)"/>
       <path id="DejaVuSans-2f" d="M 1625 4666 
L 2156 4666 
L 531 -594 
L 0 -594 
L 1625 4666 
z
" transform="scale(0.015625)"/>
      </defs>
      <use xlink:href="#DejaVuSans-4c"/>
      <use xlink:href="#DejaVuSans-69" transform="translate(55.712891 0)"/>
      <use xlink:href="#DejaVuSans-63" transform="translate(83.496094 0)"/>
      <use xlink:href="#DejaVuSans-6b" transform="translate(138.476562 0)"/>
      <use xlink:href="#DejaVuSans-20" transform="translate(196.386719 0)"/>
      <use xlink:href="#DejaVuSans-72" transform="translate(228.173828 0)"/>
      <use xlink:href="#DejaVuSans-61" transform="translate(269.287109 0)"/>
      <use xlink:href="#DejaVuSans-74" transform="translate(330.566406 0)"/>
      <use xlink:href="#DejaVuSans-65" transform="translate(369.775391 0)"/>
      <use xlink:href="#DejaVuSans-20" transform="translate(431.298828 0)"/>
      <use xlink:href="#DejaVuSans-28" transform="translate(463.085938 0)"/>
      <use xlink:href="#DejaVuSans-6c" transform="translate(502.099609 0)"/>
      <use xlink:href="#DejaVuSans-69" transform="translate(529.882812 0)"/>
      <use xlink:href="#DejaVuSans-63" transform="translate(557.666016 0)"/>
      <use xlink:href="#DejaVuSans-6b" transform="translate(612.646484 0)"/>
      <use xlink:href="#DejaVuSans-73" transform="translate(670.556641 0)"/>
      <use xlink:href="#DejaVuSans-2f" transform="translate(722.65625 0)"/>
      <use xlink:href="#DejaVuSans-73" transform="translate(756.347656 0)"/>
      <use xlink:href="#DejaVuSans-29" transform="translate(808.447266 0)"/>
     </g>
    </g>
   </g>
   <g id="line2d_12">
    <path d="M 40.603125 339.62625 
L 59.203125 339.62625 
L 77.803125 339.62625 
L 96.403125 339.62625 
L 115.003125 339.62625 
L 133.603125 339.62625 
L 152.203125 339.62625 
L 170.803125 339.62625 
L 189.403125 339.62625 
L 208.003125 339.62625 
L 226.603125 284.307473 
L 245.203125 179.816449 
L 263.803125 130.644202 
L 282.403125 124.497671 
L 301.003125 124.497671 
L 319.603125 50.739302 
L 338.203125 112.20461 
L 356.803125 216.695634 
L 375.403125 302.747065 
L 394.003125 339.62625 
L 412.603125 339.62625 
L 431.203125 339.62625 
L 449.803125 333.479719 
L 468.403125 339.62625 
L 487.003125 339.62625 
L 505.603125 339.62625 
L 524.203125 339.62625 
L 542.803125 339.62625 
L 561.403125 333.479719 
L 580.003125 339.62625 
L 598.603125 339.62625 
L 617.203125 339.62625 
L 635.803125 339.62625 
L 654.403125 339.62625 
L 673.003125 339.62625 
L 691.603125 339.62625 
L 710.203125 339.62625 
L 728.803125 339.62625 
L 747.403125 339.62625 
L 766.003125 339.62625 
L 784.603125 339.62625 
L 803.203125 339.62625 
L 821.803125 339.62625 
L 840.403125 339.62625 
L 859.003125 339.62625 
L 877.603125 339.62625 
L 896.203125 339.62625 
L 914.803125 339.62625 
L 933.403125 339.62625 
L 952.003125 339.62625 
L 970.603125 339.62625 
L 989.203125 339.62625 
L 1007.803125 339.62625 
L 1026.403125 339.62625 
L 1045.003125 339.62625 
L 1063.603125 339.62625 
L 1082.203125 339.62625 
L 1100.803125 339.62625 
L 1119.403125 339.62625 
L 1138.003125 339.62625 
L 1156.603125 339.62625 
L 1175.203125 339.62625 
L 1193.803125 339.62625 
L 1212.403125 339.62625 
L 1231.003125 339.62625 
L 1249.603125 339.62625 
L 1268.203125 339.62625 
L 1286.803125 339.62625 
L 1305.403125 339.62625 
L 1324.003125 339.62625 
L 1342.603125 339.62625 
L 1361.203125 339.62625 
L 1379.803125 339.62625 
L 1398.403125 339.62625 
L 1417.003125 339.62625 
L 1435.603125 339.62625 
" clip-path="url(#p11a258eec0)" style="fill: none; stroke: #ab5c9a; stroke-width: 2; stroke-linecap: square"/>
   </g>
   <g id="line2d_13">
    <path d="M 40.603125 339.62625 
L 59.203125 339.62625 
L 77.803125 339.62625 
L 96.403125 339.62625 
L 115.003125 339.62625 
L 133.603125 339.62625 
L 152.203125 339.62625 
L 170.803125 339.62625 
L 189.403125 339.62625 
L 208.003125 339.62625 
L 226.603125 284.307473 
L 245.203125 179.816449 
L 263.803125 130.644202 
L 282.403125 124.497671 
L 301.003125 124.497671 
L 319.603125 50.739302 
L 338.203125 112.20461 
L 356.803125 216.695634 
L 375.403125 302.747065 
L 394.003125 339.62625 
L 412.603125 339.62625 
L 431.203125 339.62625 
L 449.803125 333.479719 
L 468.403125 339.62625 
L 487.003125 339.62625 
L 505.603125 339.62625 
L 524.203125 339.62625 
L 542.803125 339.62625 
L 561.403125 333.479719 
L 580.003125 339.62625 
L 598.603125 339.62625 
L 617.203125 339.62625 
L 635.803125 339.62625 
L 654.403125 339.62625 
L 673.003125 339.62625 
L 691.603125 339.62625 
L 710.203125 339.62625 
L 728.803125 339.62625 
L 747.403125 339.62625 
L 766.003125 339.62625 
L 784.603125 339.62625 
L 803.203125 339.62625 
L 821.803125 339.62625 
L 840.403125 339.62625 
L 859.003125 339.62625 
L 877.603125 339.62625 
L 896.203125 339.62625 
L 914.803125 339.62625 
L 933.403125 339.62625 
L 952.003125 339.62625 
L 970.603125 339.62625 
L 989.203125 339.62625 
L 1007.803125 339.62625 
L 1026.403125 339.62625 
L 1045.003125 339.62625 
L 1063.603125 339.62625 
L 1082.203125 339.62625 
L 1100.803125 339.62625 
L 1119.403125 339.62625 
L 1138.003125 339.62625 
L 1156.603125 339.62625 
L 1175.203125 339.62625 
L 1193.803125 339.62625 
L 1212.403125 339.62625 
L 1231.003125 339.62625 
L 1249.603125 339.62625 
L 1268.203125 339.62625 
L 1286.803125 339.62625 
L 1305.403125 339.62625 
L 1324.003125 339.62625 
L 1342.603125 339.62625 
L 1361.203125 339.62625 
L 1379.803125 339.62625 
L 1398.403125 339.62625 
L 1417.003125 339.62625 
L 1435.603125 339.62625 
" clip-path="url(#p11a258eec0)" style="fill: none; stroke: #ab5c9a; stroke-width: 1.5; stroke-linecap: square"/>
    <defs>
     <path id="ma31d3e68aa" d="M 0 3 
C 0.795609 3 1.55874 2.683901 2.12132 2.12132 
C 2.683901 1.55874 3 0.795609 3 0 
C 3 -0.795609 2.683901 -1.55874 2.12132 -2.12132 
C 1.55874 -2.683901 0.795609 -3 0 -3 
C -0.795609 -3 -1.55874 -2.683901 -2.12132 -2.12132 
C -2.683901 -1.55874 -3 -0.795609 -3 0 
C -3 0.795609 -2.683901 1.55874 -2.12132 2.12132 
C -1.55874 2.683901 -0.795609 3 0 3 
z
" style="stroke: #ab5c9a"/>
    </defs>
    <g clip-path="url(#p11a258eec0)">
     <use xlink:href="#ma31d3e68aa" x="40.603125" y="339.62625" style="fill: #ab5c9a; stroke: #ab5c9a"/>
     <use xlink:href="#ma31d3e68aa" x="59.203125" y="339.62625" style="fill: #ab5c9a; stroke: #ab5c9a"/>
     <use xlink:href="#ma31d3e68aa" x="77.803125" y="339.62625" style="fill: #ab5c9a; stroke: #ab5c9a"/>
     <use xlink:href="#ma31d3e68aa" x="96.403125" y="339.62625" style="fill: #ab5c9a; stroke: #ab5c9a"/>
     <use xlink:href="#ma31d3e68aa" x="115.003125" y="339.62625" style="fill: #ab5c9a; stroke: #ab5c9a"/>
     <use xlink:href="#ma31d3e68aa" x="133.603125" y="339.62625" style="fill: #ab5c9a; stroke: #ab5c9a"/>
     <use xlink:href="#ma31d3e68aa" x="152.203125" y="339.62625" style="fill: #ab5c9a; stroke: #ab5c9a"/>
     <use xlink:href="#ma31d3e68aa" x="170.803125" y="339.62625" style="fill: #ab5c9a; stroke: #ab5c9a"/>
     <use xlink:href="#ma31d3e68aa" x="189.403125" y="339.62625" style="fill: #ab5c9a; stroke: #ab5c9a"/>
     <use xlink:href="#ma31d3e68aa" x="208.003125" y="339.62625" style="fill: #ab5c9a; stroke: #ab5c9a"/>
     <use xlink:href="#ma31d3e68aa" x="226.603125" y="284.307473" style="fill: #ab5c9a; stroke: #ab5c9a"/>
     <use xlink:href="#ma31d3e68aa" x="245.203125" y="179.816449" style="fill: #ab5c9a; stroke: #ab5c9a"/>
     <use xlink:href="#ma31d3e68aa" x="263.803125" y="130.644202" style="fill: #ab5c9a; stroke: #ab5c9a"/>
     <use xlink:href="#ma31d3e68aa" x="282.403125" y="124.497671" style="fill: #ab5c9a; stroke: #ab5c9a"/>
     <use xlink:href="#ma31d3e68aa" x="301.003125" y="124.497671" style="fill: #ab5c9a; stroke: #ab5c9a"/>
     <use xlink:href="#ma31d3e68aa" x="319.603125" y="50.739302" style="fill: #ab5c9a; stroke: #ab5c9a"/>
     <use xlink:href="#ma31d3e68aa" x="338.203125" y="112.20461" style="fill: #ab5c9a; stroke: #ab5c9a"/>
     <use xlink:href="#ma31d3e68aa" x="356.803125" y="216.695634" style="fill: #ab5c9a; stroke: #ab5c9a"/>
     <use xlink:href="#ma31d3e68aa" x="375.403125" y="302.747065" style="fill: #ab5c9a; stroke: #ab5c9a"/>
     <use xlink:href="#ma31d3e68aa" x="394.003125" y="339.62625" style="fill: #ab5c9a; stroke: #ab5c9a"/>
     <use xlink:href="#ma31d3e68aa" x="412.603125" y="339.62625" style="fill: #ab5c9a; stroke: #ab5c9a"/>
     <use xlink:href="#ma31d3e68aa" x="431.203125" y="339.62625" style="fill: #ab5c9a; stroke: #ab5c9a"/>
     <use xlink:href="#ma31d3e68aa" x="449.803125" y="333.479719" style="fill: #ab5c9a; stroke: #ab5c9a"/>
     <use xlink:href="#ma31d3e68aa" x="468.403125" y="339.62625" style="fill: #ab5c9a; stroke: #ab5c9a"/>
     <use xlink:href="#ma31d3e68aa" x="487.003125" y="339.62625" style="fill: #ab5c9a; stroke: #ab5c9a"/>
     <use xlink:href="#ma31d3e68aa" x="505.603125" y="339.62625" style="fill: #ab5c9a; stroke: #ab5c9a"/>
     <use xlink:href="#ma31d3e68aa" x="524.203125" y="339.62625" style="fill: #ab5c9a; stroke: #ab5c9a"/>
     <use xlink:href="#ma31d3e68aa" x="542.803125" y="339.62625" style="fill: #ab5c9a; stroke: #ab5c9a"/>
     <use xlink:href="#ma31d3e68aa" x="561.403125" y="333.479719" style="fill: #ab5c9a; stroke: #ab5c9a"/>
     <use xlink:href="#ma31d3e68aa" x="580.003125" y="339.62625" style="fill: #ab5c9a; stroke: #ab5c9a"/>
     <use xlink:href="#ma31d3e68aa" x="598.603125" y="339.62625" style="fill: #ab5c9a; stroke: #ab5c9a"/>
     <use xlink:href="#ma31d3e68aa" x="617.203125" y="339.62625" style="fill: #ab5c9a; stroke: #ab5c9a"/>
     <use xlink:href="#ma31d3e68aa" x="635.803125" y="339.62625" style="fill: #ab5c9a; stroke: #ab5c9a"/>
     <use xlink:href="#ma31d3e68aa" x="654.403125" y="339.62625" style="fill: #ab5c9a; stroke: #ab5c9a"/>
     <use xlink:href="#ma31d3e68aa" x="673.003125" y="339.62625" style="fill: #ab5c9a; stroke: #ab5c9a"/>
     <use xlink:href="#ma31d3e68aa" x="691.603125" y="339.62625" style="fill: #ab5c9a; stroke: #ab5c9a"/>
     <use xlink:href="#ma31d3e68aa" x="710.203125" y="339.62625" style="fill: #ab5c9a; stroke: #ab5c9a"/>
     <use xlink:href="#ma31d3e68aa" x="728.803125" y="339.62625" style="fill: #ab5c9a; stroke: #ab5c9a"/>
     <use xlink:href="#ma31d3e68aa" x="747.403125" y="339.62625" style="fill: #ab5c9a; stroke: #ab5c9a"/>
     <use xlink:href="#ma31d3e68aa" x="766.003125" y="339.62625" style="fill: #ab5c9a; stroke: #ab5c9a"/>
     <use xlink:href="#ma31d3e68aa" x="784.603125" y="339.62625" style="fill: #ab5c9a; stroke: #ab5c9a"/>
     <use xlink:href="#ma31d3e68aa" x="803.203125" y="339.62625" style="fill: #ab5c9a; stroke: #ab5c9a"/>
     <use xlink:href="#ma31d3e68aa" x="821.803125" y="339.62625" style="fill: #ab5c9a; stroke: #ab5c9a"/>
     <use xlink:href="#ma31d3e68aa" x="840.403125" y="339.62625" style="fill: #ab5c9a; stroke: #ab5c9a"/>
     <use xlink:href="#ma31d3e68aa" x="859.003125" y="339.62625" style="fill: #ab5c9a; stroke: #ab5c9a"/>
     <use xlink:href="#ma31d3e68aa" x="877.603125" y="339.62625" style="fill: #ab5c9a; stroke: #ab5c9a"/>
     <use xlink:href="#ma31d3e68aa" x="896.203125" y="339.62625" style="fill: #ab5c9a; stroke: #ab5c9a"/>
     <use xlink:href="#ma31d3e68aa" x="914.803125" y="339.62625" style="fill: #ab5c9a; stroke: #ab5c9a"/>
     <use xlink:href="#ma31d3e68aa" x="933.403125" y="339.62625" style="fill: #ab5c9a; stroke: #ab5c9a"/>
     <use xlink:href="#ma31d3e68aa" x="952.003125" y="339.62625" style="fill: #ab5c9a; stroke: #ab5c9a"/>
     <use xlink:href="#ma31d3e68aa" x="970.603125" y="339.62625" style="fill: #ab5c9a; stroke: #ab5c9a"/>
     <use xlink:href="#ma31d3e68aa" x="989.203125" y="339.62625" style="fill: #ab5c9a; stroke: #ab5c9a"/>
     <use xlink:href="#ma31d3e68aa" x="1007.803125" y="339.62625" style="fill: #ab5c9a; stroke: #ab5c9a"/>
     <use xlink:href="#ma31d3e68aa" x="1026.403125" y="339.62625" style="fill: #ab5c9a; stroke: #ab5c9a"/>
     <use xlink:href="#ma31d3e68aa" x="1045.003125" y="339.62625" style="fill: #ab5c9a; stroke: #ab5c9a"/>
     <use xlink:href="#ma31d3e68aa" x="1063.603125" y="339.62625" style="fill: #ab5c9a; stroke: #ab5c9a"/>
     <use xlink:href="#ma31d3e68aa" x="1082.203125" y="339.62625" style="fill: #ab5c9a; stroke: #ab5c9a"/>
     <use xlink:href="#ma31d3e68aa" x="1100.803125" y="339.62625" style="fill: #ab5c9a; stroke: #ab5c9a"/>
     <use xlink:href="#ma31d3e68aa" x="1119.403125" y="339.62625" style="fill: #ab5c9a; stroke: #ab5c9a"/>
     <use xlink:href="#ma31d3e68aa" x="1138.003125" y="339.62625" style="fill: #ab5c9a; stroke: #ab5c9a"/>
     <use xlink:href="#ma31d3e68aa" x="1156.603125" y="339.62625" style="fill: #ab5c9a; stroke: #ab5c9a"/>
     <use xlink:href="#ma31d3e68aa" x="1175.203125" y="339.62625" style="fill: #ab5c9a; stroke: #ab5c9a"/>
     <use xlink:href="#ma31d3e68aa" x="1193.803125" y="339.62625" style="fill: #ab5c9a; stroke: #ab5c9a"/>
     <use xlink:href="#ma31d3e68aa" x="1212.403125" y="339.62625" style="fill: #ab5c9a; stroke: #ab5c9a"/>
     <use xlink:href="#ma31d3e68aa" x="1231.003125" y="339.62625" style="fill: #ab5c9a; stroke: #ab5c9a"/>
     <use xlink:href="#ma31d3e68aa" x="1249.603125" y="339.62625" style="fill: #ab5c9a; stroke: #ab5c9a"/>
     <use xlink:href="#ma31d3e68aa" x="1268.203125" y="339.62625" style="fill: #ab5c9a; stroke: #ab5c9a"/>
     <use xlink:href="#ma31d3e68aa" x="1286.803125" y="339.62625" style="fill: #ab5c9a; stroke: #ab5c9a"/>
     <use xlink:href="#ma31d3e68aa" x="1305.403125" y="339.62625" style="fill: #ab5c9a; stroke: #ab5c9a"/>
     <use xlink:href="#ma31d3e68aa" x="1324.003125" y="339.62625" style="fill: #ab5c9a; stroke: #ab5c9a"/>
     <use xlink:href="#ma31d3e68aa" x="1342.603125" y="339.62625" style="fill: #ab5c9a; stroke: #ab5c9a"/>
     <use xlink:href="#ma31d3e68aa" x="1361.203125" y="339.62625" style="fill: #ab5c9a; stroke: #ab5c9a"/>
     <use xlink:href="#ma31d3e68aa" x="1379.803125" y="339.62625" style="fill: #ab5c9a; stroke: #ab5c9a"/>
     <use xlink:href="#ma31d3e68aa" x="1398.403125" y="339.62625" style="fill: #ab5c9a; stroke: #ab5c9a"/>
     <use xlink:href="#ma31d3e68aa" x="1417.003125" y="339.62625" style="fill: #ab5c9a; stroke: #ab5c9a"/>
     <use xlink:href="#ma31d3e68aa" x="1435.603125" y="339.62625" style="fill: #ab5c9a; stroke: #ab5c9a"/>
    </g>
   </g>
   <g id="line2d_14">
    <path d="M 294.803125 354.74625 
L 294.803125 22.10625 
" clip-path="url(#p11a258eec0)" style="fill: none; stroke-dasharray: 5.55,2.4; stroke-dashoffset: 0; stroke: #ab5c9a; stroke-opacity: 0.8; stroke-width: 1.5"/>
   </g>
   <g id="line2d_15">
    <path d="M 40.603125 339.62625 
L 59.203125 339.62625 
L 77.803125 339.62625 
L 96.403125 339.62625 
L 115.003125 339.62625 
L 133.603125 333.479719 
L 152.203125 339.62625 
L 170.803125 339.62625 
L 189.403125 339.62625 
L 208.003125 339.62625 
L 226.603125 339.62625 
L 245.203125 339.62625 
L 263.803125 339.62625 
L 282.403125 315.040127 
L 301.003125 265.86788 
L 319.603125 253.574819 
L 338.203125 210.549103 
L 356.803125 179.816449 
L 375.403125 124.497671 
L 394.003125 87.618487 
L 412.603125 112.20461 
L 431.203125 185.96298 
L 449.803125 278.160942 
L 468.403125 302.747065 
L 487.003125 321.186658 
L 505.603125 339.62625 
L 524.203125 339.62625 
L 542.803125 339.62625 
L 561.403125 339.62625 
L 580.003125 339.62625 
L 598.603125 339.62625 
L 617.203125 339.62625 
L 635.803125 339.62625 
L 654.403125 333.479719 
L 673.003125 339.62625 
L 691.603125 339.62625 
L 710.203125 339.62625 
L 728.803125 339.62625 
L 747.403125 339.62625 
L 766.003125 339.62625 
L 784.603125 339.62625 
L 803.203125 339.62625 
L 821.803125 339.62625 
L 840.403125 339.62625 
L 859.003125 339.62625 
L 877.603125 339.62625 
L 896.203125 339.62625 
L 914.803125 339.62625 
L 933.403125 339.62625 
L 952.003125 339.62625 
L 970.603125 339.62625 
L 989.203125 339.62625 
L 1007.803125 339.62625 
L 1026.403125 339.62625 
L 1045.003125 339.62625 
L 1063.603125 339.62625 
L 1082.203125 333.479719 
L 1100.803125 339.62625 
L 1119.403125 339.62625 
L 1138.003125 339.62625 
L 1156.603125 339.62625 
L 1175.203125 339.62625 
L 1193.803125 339.62625 
L 1212.403125 339.62625 
L 1231.003125 339.62625 
L 1249.603125 339.62625 
L 1268.203125 339.62625 
L 1286.803125 339.62625 
L 1305.403125 339.62625 
L 1324.003125 339.62625 
L 1342.603125 339.62625 
L 1361.203125 339.62625 
L 1379.803125 339.62625 
L 1398.403125 339.62625 
L 1417.003125 339.62625 
L 1435.603125 339.62625 
" clip-path="url(#p11a258eec0)" style="fill: none; stroke: #8a6ea8; stroke-width: 2; stroke-linecap: square"/>
   </g>
   <g id="line2d_16">
    <path d="M 40.603125 339.62625 
L 59.203125 339.62625 
L 77.803125 339.62625 
L 96.403125 339.62625 
L 115.003125 339.62625 
L 133.603125 333.479719 
L 152.203125 339.62625 
L 170.803125 339.62625 
L 189.403125 339.62625 
L 208.003125 339.62625 
L 226.603125 339.62625 
L 245.203125 339.62625 
L 263.803125 339.62625 
L 282.403125 315.040127 
L 301.003125 265.86788 
L 319.603125 253.574819 
L 338.203125 210.549103 
L 356.803125 179.816449 
L 375.403125 124.497671 
L 394.003125 87.618487 
L 412.603125 112.20461 
L 431.203125 185.96298 
L 449.803125 278.160942 
L 468.403125 302.747065 
L 487.003125 321.186658 
L 505.603125 339.62625 
L 524.203125 339.62625 
L 542.803125 339.62625 
L 561.403125 339.62625 
L 580.003125 339.62625 
L 598.603125 339.62625 
L 617.203125 339.62625 
L 635.803125 339.62625 
L 654.403125 333.479719 
L 673.003125 339.62625 
L 691.603125 339.62625 
L 710.203125 339.62625 
L 728.803125 339.62625 
L 747.403125 339.62625 
L 766.003125 339.62625 
L 784.603125 339.62625 
L 803.203125 339.62625 
L 821.803125 339.62625 
L 840.403125 339.62625 
L 859.003125 339.62625 
L 877.603125 339.62625 
L 896.203125 339.62625 
L 914.803125 339.62625 
L 933.403125 339.62625 
L 952.003125 339.62625 
L 970.603125 339.62625 
L 989.203125 339.62625 
L 1007.803125 339.62625 
L 1026.403125 339.62625 
L 1045.003125 339.62625 
L 1063.603125 339.62625 
L 1082.203125 333.479719 
L 1100.803125 339.62625 
L 1119.403125 339.62625 
L 1138.003125 339.62625 
L 1156.603125 339.62625 
L 1175.203125 339.62625 
L 1193.803125 339.62625 
L 1212.403125 339.62625 
L 1231.003125 339.62625 
L 1249.603125 339.62625 
L 1268.203125 339.62625 
L 1286.803125 339.62625 
L 1305.403125 339.62625 
L 1324.003125 339.62625 
L 1342.603125 339.62625 
L 1361.203125 339.62625 
L 1379.803125 339.62625 
L 1398.403125 339.62625 
L 1417.003125 339.62625 
L 1435.603125 339.62625 
" clip-path="url(#p11a258eec0)" style="fill: none; stroke: #8a6ea8; stroke-width: 1.5; stroke-linecap: square"/>
    <defs>
     <path id="m0d837fd525" d="M 0 3 
C 0.795609 3 1.55874 2.683901 2.12132 2.12132 
C 2.683901 1.55874 3 0.795609 3 0 
C 3 -0.795609 2.683901 -1.55874 2.12132 -2.12132 
C 1.55874 -2.683901 0.795609 -3 0 -3 
C -0.795609 -3 -1.55874 -2.683901 -2.12132 -2.12132 
C -2.683901 -1.55874 -3 -0.795609 -3 0 
C -3 0.795609 -2.683901 1.55874 -2.12132 2.12132 
C -1.55874 2.683901 -0.795609 3 0 3 
z
" style="stroke: #8a6ea8"/>
    </defs>
    <g clip-path="url(#p11a258eec0)">
     <use xlink:href="#m0d837fd525" x="40.603125" y="339.62625" style="fill: #8a6ea8; stroke: #8a6ea8"/>
     <use xlink:href="#m0d837fd525" x="59.203125" y="339.62625" style="fill: #8a6ea8; stroke: #8a6ea8"/>
     <use xlink:href="#m0d837fd525" x="77.803125" y="339.62625" style="fill: #8a6ea8; stroke: #8a6ea8"/>
     <use xlink:href="#m0d837fd525" x="96.403125" y="339.62625" style="fill: #8a6ea8; stroke: #8a6ea8"/>
     <use xlink:href="#m0d837fd525" x="115.003125" y="339.62625" style="fill: #8a6ea8; stroke: #8a6ea8"/>
     <use xlink:href="#m0d837fd525" x="133.603125" y="333.479719" style="fill: #8a6ea8; stroke: #8a6ea8"/>
     <use xlink:href="#m0d837fd525" x="152.203125" y="339.62625" style="fill: #8a6ea8; stroke: #8a6ea8"/>
     <use xlink:href="#m0d837fd525" x="170.803125" y="339.62625" style="fill: #8a6ea8; stroke: #8a6ea8"/>
     <use xlink:href="#m0d837fd525" x="189.403125" y="339.62625" style="fill: #8a6ea8; stroke: #8a6ea8"/>
     <use xlink:href="#m0d837fd525" x="208.003125" y="339.62625" style="fill: #8a6ea8; stroke: #8a6ea8"/>
     <use xlink:href="#m0d837fd525" x="226.603125" y="339.62625" style="fill: #8a6ea8; stroke: #8a6ea8"/>
     <use xlink:href="#m0d837fd525" x="245.203125" y="339.62625" style="fill: #8a6ea8; stroke: #8a6ea8"/>
     <use xlink:href="#m0d837fd525" x="263.803125" y="339.62625" style="fill: #8a6ea8; stroke: #8a6ea8"/>
     <use xlink:href="#m0d837fd525" x="282.403125" y="315.040127" style="fill: #8a6ea8; stroke: #8a6ea8"/>
     <use xlink:href="#m0d837fd525" x="301.003125" y="265.86788" style="fill: #8a6ea8; stroke: #8a6ea8"/>
     <use xlink:href="#m0d837fd525" x="319.603125" y="253.574819" style="fill: #8a6ea8; stroke: #8a6ea8"/>
     <use xlink:href="#m0d837fd525" x="338.203125" y="210.549103" style="fill: #8a6ea8; stroke: #8a6ea8"/>
     <use xlink:href="#m0d837fd525" x="356.803125" y="179.816449" style="fill: #8a6ea8; stroke: #8a6ea8"/>
     <use xlink:href="#m0d837fd525" x="375.403125" y="124.497671" style="fill: #8a6ea8; stroke: #8a6ea8"/>
     <use xlink:href="#m0d837fd525" x="394.003125" y="87.618487" style="fill: #8a6ea8; stroke: #8a6ea8"/>
     <use xlink:href="#m0d837fd525" x="412.603125" y="112.20461" style="fill: #8a6ea8; stroke: #8a6ea8"/>
     <use xlink:href="#m0d837fd525" x="431.203125" y="185.96298" style="fill: #8a6ea8; stroke: #8a6ea8"/>
     <use xlink:href="#m0d837fd525" x="449.803125" y="278.160942" style="fill: #8a6ea8; stroke: #8a6ea8"/>
     <use xlink:href="#m0d837fd525" x="468.403125" y="302.747065" style="fill: #8a6ea8; stroke: #8a6ea8"/>
     <use xlink:href="#m0d837fd525" x="487.003125" y="321.186658" style="fill: #8a6ea8; stroke: #8a6ea8"/>
     <use xlink:href="#m0d837fd525" x="505.603125" y="339.62625" style="fill: #8a6ea8; stroke: #8a6ea8"/>
     <use xlink:href="#m0d837fd525" x="524.203125" y="339.62625" style="fill: #8a6ea8; stroke: #8a6ea8"/>
     <use xlink:href="#m0d837fd525" x="542.803125" y="339.62625" style="fill: #8a6ea8; stroke: #8a6ea8"/>
     <use xlink:href="#m0d837fd525" x="561.403125" y="339.62625" style="fill: #8a6ea8; stroke: #8a6ea8"/>
     <use xlink:href="#m0d837fd525" x="580.003125" y="339.62625" style="fill: #8a6ea8; stroke: #8a6ea8"/>
     <use xlink:href="#m0d837fd525" x="598.603125" y="339.62625" style="fill: #8a6ea8; stroke: #8a6ea8"/>
     <use xlink:href="#m0d837fd525" x="617.203125" y="339.62625" style="fill: #8a6ea8; stroke: #8a6ea8"/>
     <use xlink:href="#m0d837fd525" x="635.803125" y="339.62625" style="fill: #8a6ea8; stroke: #8a6ea8"/>
     <use xlink:href="#m0d837fd525" x="654.403125" y="333.479719" style="fill: #8a6ea8; stroke: #8a6ea8"/>
     <use xlink:href="#m0d837fd525" x="673.003125" y="339.62625" style="fill: #8a6ea8; stroke: #8a6ea8"/>
     <use xlink:href="#m0d837fd525" x="691.603125" y="339.62625" style="fill: #8a6ea8; stroke: #8a6ea8"/>
     <use xlink:href="#m0d837fd525" x="710.203125" y="339.62625" style="fill: #8a6ea8; stroke: #8a6ea8"/>
     <use xlink:href="#m0d837fd525" x="728.803125" y="339.62625" style="fill: #8a6ea8; stroke: #8a6ea8"/>
     <use xlink:href="#m0d837fd525" x="747.403125" y="339.62625" style="fill: #8a6ea8; stroke: #8a6ea8"/>
     <use xlink:href="#m0d837fd525" x="766.003125" y="339.62625" style="fill: #8a6ea8; stroke: #8a6ea8"/>
     <use xlink:href="#m0d837fd525" x="784.603125" y="339.62625" style="fill: #8a6ea8; stroke: #8a6ea8"/>
     <use xlink:href="#m0d837fd525" x="803.203125" y="339.62625" style="fill: #8a6ea8; stroke: #8a6ea8"/>
     <use xlink:href="#m0d837fd525" x="821.803125" y="339.62625" style="fill: #8a6ea8; stroke: #8a6ea8"/>
     <use xlink:href="#m0d837fd525" x="840.403125" y="339.62625" style="fill: #8a6ea8; stroke: #8a6ea8"/>
     <use xlink:href="#m0d837fd525" x="859.003125" y="339.62625" style="fill: #8a6ea8; stroke: #8a6ea8"/>
     <use xlink:href="#m0d837fd525" x="877.603125" y="339.62625" style="fill: #8a6ea8; stroke: #8a6ea8"/>
     <use xlink:href="#m0d837fd525" x="896.203125" y="339.62625" style="fill: #8a6ea8; stroke: #8a6ea8"/>
     <use xlink:href="#m0d837fd525" x="914.803125" y="339.62625" style="fill: #8a6ea8; stroke: #8a6ea8"/>
     <use xlink:href="#m0d837fd525" x="933.403125" y="339.62625" style="fill: #8a6ea8; stroke: #8a6ea8"/>
     <use xlink:href="#m0d837fd525" x="952.003125" y="339.62625" style="fill: #8a6ea8; stroke: #8a6ea8"/>
     <use xlink:href="#m0d837fd525" x="970.603125" y="339.62625" style="fill: #8a6ea8; stroke: #8a6ea8"/>
     <use xlink:href="#m0d837fd525" x="989.203125" y="339.62625" style="fill: #8a6ea8; stroke: #8a6ea8"/>
     <use xlink:href="#m0d837fd525" x="1007.803125" y="339.62625" style="fill: #8a6ea8; stroke: #8a6ea8"/>
     <use xlink:href="#m0d837fd525" x="1026.403125" y="339.62625" style="fill: #8a6ea8; stroke: #8a6ea8"/>
     <use xlink:href="#m0d837fd525" x="1045.003125" y="339.62625" style="fill: #8a6ea8; stroke: #8a6ea8"/>
     <use xlink:href="#m0d837fd525" x="1063.603125" y="339.62625" style="fill: #8a6ea8; stroke: #8a6ea8"/>
     <use xlink:href="#m0d837fd525" x="1082.203125" y="333.479719" style="fill: #8a6ea8; stroke: #8a6ea8"/>
     <use xlink:href="#m0d837fd525" x="1100.803125" y="339.62625" style="fill: #8a6ea8; stroke: #8a6ea8"/>
     <use xlink:href="#m0d837fd525" x="1119.403125" y="339.62625" style="fill: #8a6ea8; stroke: #8a6ea8"/>
     <use xlink:href="#m0d837fd525" x="1138.003125" y="339.62625" style="fill: #8a6ea8; stroke: #8a6ea8"/>
     <use xlink:href="#m0d837fd525" x="1156.603125" y="339.62625" style="fill: #8a6ea8; stroke: #8a6ea8"/>
     <use xlink:href="#m0d837fd525" x="1175.203125" y="339.62625" style="fill: #8a6ea8; stroke: #8a6ea8"/>
     <use xlink:href="#m0d837fd525" x="1193.803125" y="339.62625" style="fill: #8a6ea8; stroke: #8a6ea8"/>
     <use xlink:href="#m0d837fd525" x="1212.403125" y="339.62625" style="fill: #8a6ea8; stroke: #8a6ea8"/>
     <use xlink:href="#m0d837fd525" x="1231.003125" y="339.62625" style="fill: #8a6ea8; stroke: #8a6ea8"/>
     <use xlink:href="#m0d837fd525" x="1249.603125" y="339.62625" style="fill: #8a6ea8; stroke: #8a6ea8"/>
     <use xlink:href="#m0d837fd525" x="1268.203125" y="339.62625" style="fill: #8a6ea8; stroke: #8a6ea8"/>
     <use xlink:href="#m0d837fd525" x="1286.803125" y="339.62625" style="fill: #8a6ea8; stroke: #8a6ea8"/>
     <use xlink:href="#m0d837fd525" x="1305.403125" y="339.62625" style="fill: #8a6ea8; stroke: #8a6ea8"/>
     <use xlink:href="#m0d837fd525" x="1324.003125" y="339.62625" style="fill: #8a6ea8; stroke: #8a6ea8"/>
     <use xlink:href="#m0d837fd525" x="1342.603125" y="339.62625" style="fill: #8a6ea8; stroke: #8a6ea8"/>
     <use xlink:href="#m0d837fd525" x="1361.203125" y="339.62625" style="fill: #8a6ea8; stroke: #8a6ea8"/>
     <use xlink:href="#m0d837fd525" x="1379.803125" y="339.62625" style="fill: #8a6ea8; stroke: #8a6ea8"/>
     <use xlink:href="#m0d837fd525" x="1398.403125" y="339.62625" style="fill: #8a6ea8; stroke: #8a6ea8"/>
     <use xlink:href="#m0d837fd525" x="1417.003125" y="339.62625" style="fill: #8a6ea8; stroke: #8a6ea8"/>
     <use xlink:href="#m0d837fd525" x="1435.603125" y="339.62625" style="fill: #8a6ea8; stroke: #8a6ea8"/>
    </g>
   </g>
   <g id="line2d_17">
    <path d="M 366.103125 354.74625 
L 366.103125 22.10625 
" clip-path="url(#p11a258eec0)" style="fill: none; stroke-dasharray: 5.55,2.4; stroke-dashoffset: 0; stroke: #8a6ea8; stroke-opacity: 0.8; stroke-width: 1.5"/>
   </g>
   <g id="line2d_18">
    <path d="M 40.603125 339.62625 
L 59.203125 333.479719 
L 77.803125 333.479719 
L 96.403125 327.333188 
L 115.003125 333.479719 
L 133.603125 327.333188 
L 152.203125 327.333188 
L 170.803125 333.479719 
L 189.403125 333.479719 
L 208.003125 339.62625 
L 226.603125 339.62625 
L 245.203125 327.333188 
L 263.803125 302.747065 
L 282.403125 308.893596 
L 301.003125 290.454003 
L 319.603125 308.893596 
L 338.203125 272.014411 
L 356.803125 278.160942 
L 375.403125 265.86788 
L 394.003125 259.721349 
L 412.603125 247.428288 
L 431.203125 204.402572 
L 449.803125 210.549103 
L 468.403125 161.376856 
L 487.003125 185.96298 
L 505.603125 142.937264 
L 524.203125 75.325425 
L 542.803125 81.471956 
L 561.403125 185.96298 
L 580.003125 247.428288 
L 598.603125 284.307473 
L 617.203125 315.040127 
L 635.803125 333.479719 
L 654.403125 333.479719 
L 673.003125 327.333188 
L 691.603125 327.333188 
L 710.203125 333.479719 
L 728.803125 327.333188 
L 747.403125 327.333188 
L 766.003125 327.333188 
L 784.603125 333.479719 
L 803.203125 321.186658 
L 821.803125 321.186658 
L 840.403125 321.186658 
L 859.003125 321.186658 
L 877.603125 327.333188 
L 896.203125 327.333188 
L 914.803125 327.333188 
L 933.403125 327.333188 
L 952.003125 327.333188 
L 970.603125 333.479719 
L 989.203125 327.333188 
L 1007.803125 333.479719 
L 1026.403125 327.333188 
L 1045.003125 333.479719 
L 1063.603125 327.333188 
L 1082.203125 333.479719 
L 1100.803125 333.479719 
L 1119.403125 327.333188 
L 1138.003125 327.333188 
L 1156.603125 327.333188 
L 1175.203125 333.479719 
L 1193.803125 327.333188 
L 1212.403125 333.479719 
L 1231.003125 333.479719 
L 1249.603125 333.479719 
L 1268.203125 333.479719 
L 1286.803125 333.479719 
L 1305.403125 327.333188 
L 1324.003125 327.333188 
L 1342.603125 333.479719 
L 1361.203125 333.479719 
L 1379.803125 327.333188 
L 1398.403125 327.333188 
L 1417.003125 333.479719 
L 1435.603125 333.479719 
" clip-path="url(#p11a258eec0)" style="fill: none; stroke: #88acd7; stroke-width: 2; stroke-linecap: square"/>
   </g>
   <g id="line2d_19">
    <path d="M 40.603125 339.62625 
L 59.203125 333.479719 
L 77.803125 333.479719 
L 96.403125 327.333188 
L 115.003125 333.479719 
L 133.603125 327.333188 
L 152.203125 327.333188 
L 170.803125 333.479719 
L 189.403125 333.479719 
L 208.003125 339.62625 
L 226.603125 339.62625 
L 245.203125 327.333188 
L 263.803125 302.747065 
L 282.403125 308.893596 
L 301.003125 290.454003 
L 319.603125 308.893596 
L 338.203125 272.014411 
L 356.803125 278.160942 
L 375.403125 265.86788 
L 394.003125 259.721349 
L 412.603125 247.428288 
L 431.203125 204.402572 
L 449.803125 210.549103 
L 468.403125 161.376856 
L 487.003125 185.96298 
L 505.603125 142.937264 
L 524.203125 75.325425 
L 542.803125 81.471956 
L 561.403125 185.96298 
L 580.003125 247.428288 
L 598.603125 284.307473 
L 617.203125 315.040127 
L 635.803125 333.479719 
L 654.403125 333.479719 
L 673.003125 327.333188 
L 691.603125 327.333188 
L 710.203125 333.479719 
L 728.803125 327.333188 
L 747.403125 327.333188 
L 766.003125 327.333188 
L 784.603125 333.479719 
L 803.203125 321.186658 
L 821.803125 321.186658 
L 840.403125 321.186658 
L 859.003125 321.186658 
L 877.603125 327.333188 
L 896.203125 327.333188 
L 914.803125 327.333188 
L 933.403125 327.333188 
L 952.003125 327.333188 
L 970.603125 333.479719 
L 989.203125 327.333188 
L 1007.803125 333.479719 
L 1026.403125 327.333188 
L 1045.003125 333.479719 
L 1063.603125 327.333188 
L 1082.203125 333.479719 
L 1100.803125 333.479719 
L 1119.403125 327.333188 
L 1138.003125 327.333188 
L 1156.603125 327.333188 
L 1175.203125 333.479719 
L 1193.803125 327.333188 
L 1212.403125 333.479719 
L 1231.003125 333.479719 
L 1249.603125 333.479719 
L 1268.203125 333.479719 
L 1286.803125 333.479719 
L 1305.403125 327.333188 
L 1324.003125 327.333188 
L 1342.603125 333.479719 
L 1361.203125 333.479719 
L 1379.803125 327.333188 
L 1398.403125 327.333188 
L 1417.003125 333.479719 
L 1435.603125 333.479719 
" clip-path="url(#p11a258eec0)" style="fill: none; stroke: #88acd7; stroke-width: 1.5; stroke-linecap: square"/>
    <defs>
     <path id="md8c7a9091e" d="M 0 3 
C 0.795609 3 1.55874 2.683901 2.12132 2.12132 
C 2.683901 1.55874 3 0.795609 3 0 
C 3 -0.795609 2.683901 -1.55874 2.12132 -2.12132 
C 1.55874 -2.683901 0.795609 -3 0 -3 
C -0.795609 -3 -1.55874 -2.683901 -2.12132 -2.12132 
C -2.683901 -1.55874 -3 -0.795609 -3 0 
C -3 0.795609 -2.683901 1.55874 -2.12132 2.12132 
C -1.55874 2.683901 -0.795609 3 0 3 
z
" style="stroke: #88acd7"/>
    </defs>
    <g clip-path="url(#p11a258eec0)">
     <use xlink:href="#md8c7a9091e" x="40.603125" y="339.62625" style="fill: #88acd7; stroke: #88acd7"/>
     <use xlink:href="#md8c7a9091e" x="59.203125" y="333.479719" style="fill: #88acd7; stroke: #88acd7"/>
     <use xlink:href="#md8c7a9091e" x="77.803125" y="333.479719" style="fill: #88acd7; stroke: #88acd7"/>
     <use xlink:href="#md8c7a9091e" x="96.403125" y="327.333188" style="fill: #88acd7; stroke: #88acd7"/>
     <use xlink:href="#md8c7a9091e" x="115.003125" y="333.479719" style="fill: #88acd7; stroke: #88acd7"/>
     <use xlink:href="#md8c7a9091e" x="133.603125" y="327.333188" style="fill: #88acd7; stroke: #88acd7"/>
     <use xlink:href="#md8c7a9091e" x="152.203125" y="327.333188" style="fill: #88acd7; stroke: #88acd7"/>
     <use xlink:href="#md8c7a9091e" x="170.803125" y="333.479719" style="fill: #88acd7; stroke: #88acd7"/>
     <use xlink:href="#md8c7a9091e" x="189.403125" y="333.479719" style="fill: #88acd7; stroke: #88acd7"/>
     <use xlink:href="#md8c7a9091e" x="208.003125" y="339.62625" style="fill: #88acd7; stroke: #88acd7"/>
     <use xlink:href="#md8c7a9091e" x="226.603125" y="339.62625" style="fill: #88acd7; stroke: #88acd7"/>
     <use xlink:href="#md8c7a9091e" x="245.203125" y="327.333188" style="fill: #88acd7; stroke: #88acd7"/>
     <use xlink:href="#md8c7a9091e" x="263.803125" y="302.747065" style="fill: #88acd7; stroke: #88acd7"/>
     <use xlink:href="#md8c7a9091e" x="282.403125" y="308.893596" style="fill: #88acd7; stroke: #88acd7"/>
     <use xlink:href="#md8c7a9091e" x="301.003125" y="290.454003" style="fill: #88acd7; stroke: #88acd7"/>
     <use xlink:href="#md8c7a9091e" x="319.603125" y="308.893596" style="fill: #88acd7; stroke: #88acd7"/>
     <use xlink:href="#md8c7a9091e" x="338.203125" y="272.014411" style="fill: #88acd7; stroke: #88acd7"/>
     <use xlink:href="#md8c7a9091e" x="356.803125" y="278.160942" style="fill: #88acd7; stroke: #88acd7"/>
     <use xlink:href="#md8c7a9091e" x="375.403125" y="265.86788" style="fill: #88acd7; stroke: #88acd7"/>
     <use xlink:href="#md8c7a9091e" x="394.003125" y="259.721349" style="fill: #88acd7; stroke: #88acd7"/>
     <use xlink:href="#md8c7a9091e" x="412.603125" y="247.428288" style="fill: #88acd7; stroke: #88acd7"/>
     <use xlink:href="#md8c7a9091e" x="431.203125" y="204.402572" style="fill: #88acd7; stroke: #88acd7"/>
     <use xlink:href="#md8c7a9091e" x="449.803125" y="210.549103" style="fill: #88acd7; stroke: #88acd7"/>
     <use xlink:href="#md8c7a9091e" x="468.403125" y="161.376856" style="fill: #88acd7; stroke: #88acd7"/>
     <use xlink:href="#md8c7a9091e" x="487.003125" y="185.96298" style="fill: #88acd7; stroke: #88acd7"/>
     <use xlink:href="#md8c7a9091e" x="505.603125" y="142.937264" style="fill: #88acd7; stroke: #88acd7"/>
     <use xlink:href="#md8c7a9091e" x="524.203125" y="75.325425" style="fill: #88acd7; stroke: #88acd7"/>
     <use xlink:href="#md8c7a9091e" x="542.803125" y="81.471956" style="fill: #88acd7; stroke: #88acd7"/>
     <use xlink:href="#md8c7a9091e" x="561.403125" y="185.96298" style="fill: #88acd7; stroke: #88acd7"/>
     <use xlink:href="#md8c7a9091e" x="580.003125" y="247.428288" style="fill: #88acd7; stroke: #88acd7"/>
     <use xlink:href="#md8c7a9091e" x="598.603125" y="284.307473" style="fill: #88acd7; stroke: #88acd7"/>
     <use xlink:href="#md8c7a9091e" x="617.203125" y="315.040127" style="fill: #88acd7; stroke: #88acd7"/>
     <use xlink:href="#md8c7a9091e" x="635.803125" y="333.479719" style="fill: #88acd7; stroke: #88acd7"/>
     <use xlink:href="#md8c7a9091e" x="654.403125" y="333.479719" style="fill: #88acd7; stroke: #88acd7"/>
     <use xlink:href="#md8c7a9091e" x="673.003125" y="327.333188" style="fill: #88acd7; stroke: #88acd7"/>
     <use xlink:href="#md8c7a9091e" x="691.603125" y="327.333188" style="fill: #88acd7; stroke: #88acd7"/>
     <use xlink:href="#md8c7a9091e" x="710.203125" y="333.479719" style="fill: #88acd7; stroke: #88acd7"/>
     <use xlink:href="#md8c7a9091e" x="728.803125" y="327.333188" style="fill: #88acd7; stroke: #88acd7"/>
     <use xlink:href="#md8c7a9091e" x="747.403125" y="327.333188" style="fill: #88acd7; stroke: #88acd7"/>
     <use xlink:href="#md8c7a9091e" x="766.003125" y="327.333188" style="fill: #88acd7; stroke: #88acd7"/>
     <use xlink:href="#md8c7a9091e" x="784.603125" y="333.479719" style="fill: #88acd7; stroke: #88acd7"/>
     <use xlink:href="#md8c7a9091e" x="803.203125" y="321.186658" style="fill: #88acd7; stroke: #88acd7"/>
     <use xlink:href="#md8c7a9091e" x="821.803125" y="321.186658" style="fill: #88acd7; stroke: #88acd7"/>
     <use xlink:href="#md8c7a9091e" x="840.403125" y="321.186658" style="fill: #88acd7; stroke: #88acd7"/>
     <use xlink:href="#md8c7a9091e" x="859.003125" y="321.186658" style="fill: #88acd7; stroke: #88acd7"/>
     <use xlink:href="#md8c7a9091e" x="877.603125" y="327.333188" style="fill: #88acd7; stroke: #88acd7"/>
     <use xlink:href="#md8c7a9091e" x="896.203125" y="327.333188" style="fill: #88acd7; stroke: #88acd7"/>
     <use xlink:href="#md8c7a9091e" x="914.803125" y="327.333188" style="fill: #88acd7; stroke: #88acd7"/>
     <use xlink:href="#md8c7a9091e" x="933.403125" y="327.333188" style="fill: #88acd7; stroke: #88acd7"/>
     <use xlink:href="#md8c7a9091e" x="952.003125" y="327.333188" style="fill: #88acd7; stroke: #88acd7"/>
     <use xlink:href="#md8c7a9091e" x="970.603125" y="333.479719" style="fill: #88acd7; stroke: #88acd7"/>
     <use xlink:href="#md8c7a9091e" x="989.203125" y="327.333188" style="fill: #88acd7; stroke: #88acd7"/>
     <use xlink:href="#md8c7a9091e" x="1007.803125" y="333.479719" style="fill: #88acd7; stroke: #88acd7"/>
     <use xlink:href="#md8c7a9091e" x="1026.403125" y="327.333188" style="fill: #88acd7; stroke: #88acd7"/>
     <use xlink:href="#md8c7a9091e" x="1045.003125" y="333.479719" style="fill: #88acd7; stroke: #88acd7"/>
     <use xlink:href="#md8c7a9091e" x="1063.603125" y="327.333188" style="fill: #88acd7; stroke: #88acd7"/>
     <use xlink:href="#md8c7a9091e" x="1082.203125" y="333.479719" style="fill: #88acd7; stroke: #88acd7"/>
     <use xlink:href="#md8c7a9091e" x="1100.803125" y="333.479719" style="fill: #88acd7; stroke: #88acd7"/>
     <use xlink:href="#md8c7a9091e" x="1119.403125" y="327.333188" style="fill: #88acd7; stroke: #88acd7"/>
     <use xlink:href="#md8c7a9091e" x="1138.003125" y="327.333188" style="fill: #88acd7; stroke: #88acd7"/>
     <use xlink:href="#md8c7a9091e" x="1156.603125" y="327.333188" style="fill: #88acd7; stroke: #88acd7"/>
     <use xlink:href="#md8c7a9091e" x="1175.203125" y="333.479719" style="fill: #88acd7; stroke: #88acd7"/>
     <use xlink:href="#md8c7a9091e" x="1193.803125" y="327.333188" style="fill: #88acd7; stroke: #88acd7"/>
     <use xlink:href="#md8c7a9091e" x="1212.403125" y="333.479719" style="fill: #88acd7; stroke: #88acd7"/>
     <use xlink:href="#md8c7a9091e" x="1231.003125" y="333.479719" style="fill: #88acd7; stroke: #88acd7"/>
     <use xlink:href="#md8c7a9091e" x="1249.603125" y="333.479719" style="fill: #88acd7; stroke: #88acd7"/>
     <use xlink:href="#md8c7a9091e" x="1268.203125" y="333.479719" style="fill: #88acd7; stroke: #88acd7"/>
     <use xlink:href="#md8c7a9091e" x="1286.803125" y="333.479719" style="fill: #88acd7; stroke: #88acd7"/>
     <use xlink:href="#md8c7a9091e" x="1305.403125" y="327.333188" style="fill: #88acd7; stroke: #88acd7"/>
     <use xlink:href="#md8c7a9091e" x="1324.003125" y="327.333188" style="fill: #88acd7; stroke: #88acd7"/>
     <use xlink:href="#md8c7a9091e" x="1342.603125" y="333.479719" style="fill: #88acd7; stroke: #88acd7"/>
     <use xlink:href="#md8c7a9091e" x="1361.203125" y="333.479719" style="fill: #88acd7; stroke: #88acd7"/>
     <use xlink:href="#md8c7a9091e" x="1379.803125" y="327.333188" style="fill: #88acd7; stroke: #88acd7"/>
     <use xlink:href="#md8c7a9091e" x="1398.403125" y="327.333188" style="fill: #88acd7; stroke: #88acd7"/>
     <use xlink:href="#md8c7a9091e" x="1417.003125" y="333.479719" style="fill: #88acd7; stroke: #88acd7"/>
     <use xlink:href="#md8c7a9091e" x="1435.603125" y="333.479719" style="fill: #88acd7; stroke: #88acd7"/>
    </g>
   </g>
   <g id="line2d_20">
    <path d="M 505.603125 354.74625 
L 505.603125 22.10625 
" clip-path="url(#p11a258eec0)" style="fill: none; stroke-dasharray: 5.55,2.4; stroke-dashoffset: 0; stroke: #88acd7; stroke-opacity: 0.8; stroke-width: 1.5"/>
   </g>
   <g id="line2d_21">
    <path d="M 40.603125 339.62625 
L 59.203125 339.62625 
L 77.803125 327.333188 
L 96.403125 333.479719 
L 115.003125 333.479719 
L 133.603125 327.333188 
L 152.203125 333.479719 
L 170.803125 327.333188 
L 189.403125 333.479719 
L 208.003125 327.333188 
L 226.603125 333.479719 
L 245.203125 327.333188 
L 263.803125 333.479719 
L 282.403125 327.333188 
L 301.003125 327.333188 
L 319.603125 333.479719 
L 338.203125 321.186658 
L 356.803125 339.62625 
L 375.403125 339.62625 
L 394.003125 339.62625 
L 412.603125 333.479719 
L 431.203125 333.479719 
L 449.803125 339.62625 
L 468.403125 321.186658 
L 487.003125 333.479719 
L 505.603125 327.333188 
L 524.203125 315.040127 
L 542.803125 321.186658 
L 561.403125 302.747065 
L 580.003125 253.574819 
L 598.603125 272.014411 
L 617.203125 253.574819 
L 635.803125 241.281757 
L 654.403125 235.135226 
L 673.003125 235.135226 
L 691.603125 198.256041 
L 710.203125 235.135226 
L 728.803125 198.256041 
L 747.403125 222.842165 
L 766.003125 179.816449 
L 784.603125 192.10951 
L 803.203125 118.351141 
L 821.803125 69.178894 
L 840.403125 161.376856 
L 859.003125 247.428288 
L 877.603125 265.86788 
L 896.203125 290.454003 
L 914.803125 327.333188 
L 933.403125 327.333188 
L 952.003125 333.479719 
L 970.603125 339.62625 
L 989.203125 339.62625 
L 1007.803125 339.62625 
L 1026.403125 339.62625 
L 1045.003125 339.62625 
L 1063.603125 339.62625 
L 1082.203125 339.62625 
L 1100.803125 339.62625 
L 1119.403125 327.333188 
L 1138.003125 339.62625 
L 1156.603125 339.62625 
L 1175.203125 339.62625 
L 1193.803125 339.62625 
L 1212.403125 339.62625 
L 1231.003125 339.62625 
L 1249.603125 339.62625 
L 1268.203125 339.62625 
L 1286.803125 339.62625 
L 1305.403125 339.62625 
L 1324.003125 339.62625 
L 1342.603125 339.62625 
L 1361.203125 339.62625 
L 1379.803125 339.62625 
L 1398.403125 339.62625 
L 1417.003125 339.62625 
L 1435.603125 339.62625 
" clip-path="url(#p11a258eec0)" style="fill: none; stroke: #8eced8; stroke-width: 2; stroke-linecap: square"/>
   </g>
   <g id="line2d_22">
    <path d="M 40.603125 339.62625 
L 59.203125 339.62625 
L 77.803125 327.333188 
L 96.403125 333.479719 
L 115.003125 333.479719 
L 133.603125 327.333188 
L 152.203125 333.479719 
L 170.803125 327.333188 
L 189.403125 333.479719 
L 208.003125 327.333188 
L 226.603125 333.479719 
L 245.203125 327.333188 
L 263.803125 333.479719 
L 282.403125 327.333188 
L 301.003125 327.333188 
L 319.603125 333.479719 
L 338.203125 321.186658 
L 356.803125 339.62625 
L 375.403125 339.62625 
L 394.003125 339.62625 
L 412.603125 333.479719 
L 431.203125 333.479719 
L 449.803125 339.62625 
L 468.403125 321.186658 
L 487.003125 333.479719 
L 505.603125 327.333188 
L 524.203125 315.040127 
L 542.803125 321.186658 
L 561.403125 302.747065 
L 580.003125 253.574819 
L 598.603125 272.014411 
L 617.203125 253.574819 
L 635.803125 241.281757 
L 654.403125 235.135226 
L 673.003125 235.135226 
L 691.603125 198.256041 
L 710.203125 235.135226 
L 728.803125 198.256041 
L 747.403125 222.842165 
L 766.003125 179.816449 
L 784.603125 192.10951 
L 803.203125 118.351141 
L 821.803125 69.178894 
L 840.403125 161.376856 
L 859.003125 247.428288 
L 877.603125 265.86788 
L 896.203125 290.454003 
L 914.803125 327.333188 
L 933.403125 327.333188 
L 952.003125 333.479719 
L 970.603125 339.62625 
L 989.203125 339.62625 
L 1007.803125 339.62625 
L 1026.403125 339.62625 
L 1045.003125 339.62625 
L 1063.603125 339.62625 
L 1082.203125 339.62625 
L 1100.803125 339.62625 
L 1119.403125 327.333188 
L 1138.003125 339.62625 
L 1156.603125 339.62625 
L 1175.203125 339.62625 
L 1193.803125 339.62625 
L 1212.403125 339.62625 
L 1231.003125 339.62625 
L 1249.603125 339.62625 
L 1268.203125 339.62625 
L 1286.803125 339.62625 
L 1305.403125 339.62625 
L 1324.003125 339.62625 
L 1342.603125 339.62625 
L 1361.203125 339.62625 
L 1379.803125 339.62625 
L 1398.403125 339.62625 
L 1417.003125 339.62625 
L 1435.603125 339.62625 
" clip-path="url(#p11a258eec0)" style="fill: none; stroke: #8eced8; stroke-width: 1.5; stroke-linecap: square"/>
    <defs>
     <path id="md38ea4152b" d="M 0 3 
C 0.795609 3 1.55874 2.683901 2.12132 2.12132 
C 2.683901 1.55874 3 0.795609 3 0 
C 3 -0.795609 2.683901 -1.55874 2.12132 -2.12132 
C 1.55874 -2.683901 0.795609 -3 0 -3 
C -0.795609 -3 -1.55874 -2.683901 -2.12132 -2.12132 
C -2.683901 -1.55874 -3 -0.795609 -3 0 
C -3 0.795609 -2.683901 1.55874 -2.12132 2.12132 
C -1.55874 2.683901 -0.795609 3 0 3 
z
" style="stroke: #8eced8"/>
    </defs>
    <g clip-path="url(#p11a258eec0)">
     <use xlink:href="#md38ea4152b" x="40.603125" y="339.62625" style="fill: #8eced8; stroke: #8eced8"/>
     <use xlink:href="#md38ea4152b" x="59.203125" y="339.62625" style="fill: #8eced8; stroke: #8eced8"/>
     <use xlink:href="#md38ea4152b" x="77.803125" y="327.333188" style="fill: #8eced8; stroke: #8eced8"/>
     <use xlink:href="#md38ea4152b" x="96.403125" y="333.479719" style="fill: #8eced8; stroke: #8eced8"/>
     <use xlink:href="#md38ea4152b" x="115.003125" y="333.479719" style="fill: #8eced8; stroke: #8eced8"/>
     <use xlink:href="#md38ea4152b" x="133.603125" y="327.333188" style="fill: #8eced8; stroke: #8eced8"/>
     <use xlink:href="#md38ea4152b" x="152.203125" y="333.479719" style="fill: #8eced8; stroke: #8eced8"/>
     <use xlink:href="#md38ea4152b" x="170.803125" y="327.333188" style="fill: #8eced8; stroke: #8eced8"/>
     <use xlink:href="#md38ea4152b" x="189.403125" y="333.479719" style="fill: #8eced8; stroke: #8eced8"/>
     <use xlink:href="#md38ea4152b" x="208.003125" y="327.333188" style="fill: #8eced8; stroke: #8eced8"/>
     <use xlink:href="#md38ea4152b" x="226.603125" y="333.479719" style="fill: #8eced8; stroke: #8eced8"/>
     <use xlink:href="#md38ea4152b" x="245.203125" y="327.333188" style="fill: #8eced8; stroke: #8eced8"/>
     <use xlink:href="#md38ea4152b" x="263.803125" y="333.479719" style="fill: #8eced8; stroke: #8eced8"/>
     <use xlink:href="#md38ea4152b" x="282.403125" y="327.333188" style="fill: #8eced8; stroke: #8eced8"/>
     <use xlink:href="#md38ea4152b" x="301.003125" y="327.333188" style="fill: #8eced8; stroke: #8eced8"/>
     <use xlink:href="#md38ea4152b" x="319.603125" y="333.479719" style="fill: #8eced8; stroke: #8eced8"/>
     <use xlink:href="#md38ea4152b" x="338.203125" y="321.186658" style="fill: #8eced8; stroke: #8eced8"/>
     <use xlink:href="#md38ea4152b" x="356.803125" y="339.62625" style="fill: #8eced8; stroke: #8eced8"/>
     <use xlink:href="#md38ea4152b" x="375.403125" y="339.62625" style="fill: #8eced8; stroke: #8eced8"/>
     <use xlink:href="#md38ea4152b" x="394.003125" y="339.62625" style="fill: #8eced8; stroke: #8eced8"/>
     <use xlink:href="#md38ea4152b" x="412.603125" y="333.479719" style="fill: #8eced8; stroke: #8eced8"/>
     <use xlink:href="#md38ea4152b" x="431.203125" y="333.479719" style="fill: #8eced8; stroke: #8eced8"/>
     <use xlink:href="#md38ea4152b" x="449.803125" y="339.62625" style="fill: #8eced8; stroke: #8eced8"/>
     <use xlink:href="#md38ea4152b" x="468.403125" y="321.186658" style="fill: #8eced8; stroke: #8eced8"/>
     <use xlink:href="#md38ea4152b" x="487.003125" y="333.479719" style="fill: #8eced8; stroke: #8eced8"/>
     <use xlink:href="#md38ea4152b" x="505.603125" y="327.333188" style="fill: #8eced8; stroke: #8eced8"/>
     <use xlink:href="#md38ea4152b" x="524.203125" y="315.040127" style="fill: #8eced8; stroke: #8eced8"/>
     <use xlink:href="#md38ea4152b" x="542.803125" y="321.186658" style="fill: #8eced8; stroke: #8eced8"/>
     <use xlink:href="#md38ea4152b" x="561.403125" y="302.747065" style="fill: #8eced8; stroke: #8eced8"/>
     <use xlink:href="#md38ea4152b" x="580.003125" y="253.574819" style="fill: #8eced8; stroke: #8eced8"/>
     <use xlink:href="#md38ea4152b" x="598.603125" y="272.014411" style="fill: #8eced8; stroke: #8eced8"/>
     <use xlink:href="#md38ea4152b" x="617.203125" y="253.574819" style="fill: #8eced8; stroke: #8eced8"/>
     <use xlink:href="#md38ea4152b" x="635.803125" y="241.281757" style="fill: #8eced8; stroke: #8eced8"/>
     <use xlink:href="#md38ea4152b" x="654.403125" y="235.135226" style="fill: #8eced8; stroke: #8eced8"/>
     <use xlink:href="#md38ea4152b" x="673.003125" y="235.135226" style="fill: #8eced8; stroke: #8eced8"/>
     <use xlink:href="#md38ea4152b" x="691.603125" y="198.256041" style="fill: #8eced8; stroke: #8eced8"/>
     <use xlink:href="#md38ea4152b" x="710.203125" y="235.135226" style="fill: #8eced8; stroke: #8eced8"/>
     <use xlink:href="#md38ea4152b" x="728.803125" y="198.256041" style="fill: #8eced8; stroke: #8eced8"/>
     <use xlink:href="#md38ea4152b" x="747.403125" y="222.842165" style="fill: #8eced8; stroke: #8eced8"/>
     <use xlink:href="#md38ea4152b" x="766.003125" y="179.816449" style="fill: #8eced8; stroke: #8eced8"/>
     <use xlink:href="#md38ea4152b" x="784.603125" y="192.10951" style="fill: #8eced8; stroke: #8eced8"/>
     <use xlink:href="#md38ea4152b" x="803.203125" y="118.351141" style="fill: #8eced8; stroke: #8eced8"/>
     <use xlink:href="#md38ea4152b" x="821.803125" y="69.178894" style="fill: #8eced8; stroke: #8eced8"/>
     <use xlink:href="#md38ea4152b" x="840.403125" y="161.376856" style="fill: #8eced8; stroke: #8eced8"/>
     <use xlink:href="#md38ea4152b" x="859.003125" y="247.428288" style="fill: #8eced8; stroke: #8eced8"/>
     <use xlink:href="#md38ea4152b" x="877.603125" y="265.86788" style="fill: #8eced8; stroke: #8eced8"/>
     <use xlink:href="#md38ea4152b" x="896.203125" y="290.454003" style="fill: #8eced8; stroke: #8eced8"/>
     <use xlink:href="#md38ea4152b" x="914.803125" y="327.333188" style="fill: #8eced8; stroke: #8eced8"/>
     <use xlink:href="#md38ea4152b" x="933.403125" y="327.333188" style="fill: #8eced8; stroke: #8eced8"/>
     <use xlink:href="#md38ea4152b" x="952.003125" y="333.479719" style="fill: #8eced8; stroke: #8eced8"/>
     <use xlink:href="#md38ea4152b" x="970.603125" y="339.62625" style="fill: #8eced8; stroke: #8eced8"/>
     <use xlink:href="#md38ea4152b" x="989.203125" y="339.62625" style="fill: #8eced8; stroke: #8eced8"/>
     <use xlink:href="#md38ea4152b" x="1007.803125" y="339.62625" style="fill: #8eced8; stroke: #8eced8"/>
     <use xlink:href="#md38ea4152b" x="1026.403125" y="339.62625" style="fill: #8eced8; stroke: #8eced8"/>
     <use xlink:href="#md38ea4152b" x="1045.003125" y="339.62625" style="fill: #8eced8; stroke: #8eced8"/>
     <use xlink:href="#md38ea4152b" x="1063.603125" y="339.62625" style="fill: #8eced8; stroke: #8eced8"/>
     <use xlink:href="#md38ea4152b" x="1082.203125" y="339.62625" style="fill: #8eced8; stroke: #8eced8"/>
     <use xlink:href="#md38ea4152b" x="1100.803125" y="339.62625" style="fill: #8eced8; stroke: #8eced8"/>
     <use xlink:href="#md38ea4152b" x="1119.403125" y="327.333188" style="fill: #8eced8; stroke: #8eced8"/>
     <use xlink:href="#md38ea4152b" x="1138.003125" y="339.62625" style="fill: #8eced8; stroke: #8eced8"/>
     <use xlink:href="#md38ea4152b" x="1156.603125" y="339.62625" style="fill: #8eced8; stroke: #8eced8"/>
     <use xlink:href="#md38ea4152b" x="1175.203125" y="339.62625" style="fill: #8eced8; stroke: #8eced8"/>
     <use xlink:href="#md38ea4152b" x="1193.803125" y="339.62625" style="fill: #8eced8; stroke: #8eced8"/>
     <use xlink:href="#md38ea4152b" x="1212.403125" y="339.62625" style="fill: #8eced8; stroke: #8eced8"/>
     <use xlink:href="#md38ea4152b" x="1231.003125" y="339.62625" style="fill: #8eced8; stroke: #8eced8"/>
     <use xlink:href="#md38ea4152b" x="1249.603125" y="339.62625" style="fill: #8eced8; stroke: #8eced8"/>
     <use xlink:href="#md38ea4152b" x="1268.203125" y="339.62625" style="fill: #8eced8; stroke: #8eced8"/>
     <use xlink:href="#md38ea4152b" x="1286.803125" y="339.62625" style="fill: #8eced8; stroke: #8eced8"/>
     <use xlink:href="#md38ea4152b" x="1305.403125" y="339.62625" style="fill: #8eced8; stroke: #8eced8"/>
     <use xlink:href="#md38ea4152b" x="1324.003125" y="339.62625" style="fill: #8eced8; stroke: #8eced8"/>
     <use xlink:href="#md38ea4152b" x="1342.603125" y="339.62625" style="fill: #8eced8; stroke: #8eced8"/>
     <use xlink:href="#md38ea4152b" x="1361.203125" y="339.62625" style="fill: #8eced8; stroke: #8eced8"/>
     <use xlink:href="#md38ea4152b" x="1379.803125" y="339.62625" style="fill: #8eced8; stroke: #8eced8"/>
     <use xlink:href="#md38ea4152b" x="1398.403125" y="339.62625" style="fill: #8eced8; stroke: #8eced8"/>
     <use xlink:href="#md38ea4152b" x="1417.003125" y="339.62625" style="fill: #8eced8; stroke: #8eced8"/>
     <use xlink:href="#md38ea4152b" x="1435.603125" y="339.62625" style="fill: #8eced8; stroke: #8eced8"/>
    </g>
   </g>
   <g id="line2d_23">
    <path d="M 784.603125 354.74625 
L 784.603125 22.10625 
" clip-path="url(#p11a258eec0)" style="fill: none; stroke-dasharray: 5.55,2.4; stroke-dashoffset: 0; stroke: #8eced8; stroke-opacity: 0.8; stroke-width: 1.5"/>
   </g>
   <g id="line2d_24">
    <path d="M 180.103125 354.74625 
L 180.103125 22.10625 
" clip-path="url(#p11a258eec0)" style="fill: none; stroke-dasharray: 5.55,2.4; stroke-dashoffset: 0; stroke: #000000; stroke-opacity: 0.8; stroke-width: 1.5"/>
   </g>
   <g id="patch_3">
    <path d="M 40.603125 354.74625 
L 40.603125 22.10625 
" style="fill: none; stroke: #000000; stroke-width: 0.8; stroke-linejoin: miter; stroke-linecap: square"/>
   </g>
   <g id="patch_4">
    <path d="M 1435.603125 354.74625 
L 1435.603125 22.10625 
" style="fill: none; stroke: #000000; stroke-width: 0.8; stroke-linejoin: miter; stroke-linecap: square"/>
   </g>
   <g id="patch_5">
    <path d="M 40.603125 354.74625 
L 1435.603125 354.74625 
" style="fill: none; stroke: #000000; stroke-width: 0.8; stroke-linejoin: miter; stroke-linecap: square"/>
   </g>
   <g id="patch_6">
    <path d="M 40.603125 22.10625 
L 1435.603125 22.10625 
" style="fill: none; stroke: #000000; stroke-width: 0.8; stroke-linejoin: miter; stroke-linecap: square"/>
   </g>
   <g id="text_14">
    <!-- CC4_20251009 -->
    <g transform="translate(692.36625 16.10625) scale(0.12 -0.12)">
     <defs>
      <path id="DejaVuSans-43" d="M 4122 4306 
L 4122 3641 
Q 3803 3938 3442 4084 
Q 3081 4231 2675 4231 
Q 1875 4231 1450 3742 
Q 1025 3253 1025 2328 
Q 1025 1406 1450 917 
Q 1875 428 2675 428 
Q 3081 428 3442 575 
Q 3803 722 4122 1019 
L 4122 359 
Q 3791 134 3420 21 
Q 3050 -91 2638 -91 
Q 1578 -91 968 557 
Q 359 1206 359 2328 
Q 359 3453 968 4101 
Q 1578 4750 2638 4750 
Q 3056 4750 3426 4639 
Q 3797 4528 4122 4306 
z
" transform="scale(0.015625)"/>
      <path id="DejaVuSans-5f" d="M 3263 -1063 
L 3263 -1509 
L -63 -1509 
L -63 -1063 
L 3263 -1063 
z
" transform="scale(0.015625)"/>
      <path id="DejaVuSans-39" d="M 703 97 
L 703 672 
Q 941 559 1184 500 
Q 1428 441 1663 441 
Q 2288 441 2617 861 
Q 2947 1281 2994 2138 
Q 2813 1869 2534 1725 
Q 2256 1581 1919 1581 
Q 1219 1581 811 2004 
Q 403 2428 403 3163 
Q 403 3881 828 4315 
Q 1253 4750 1959 4750 
Q 2769 4750 3195 4129 
Q 3622 3509 3622 2328 
Q 3622 1225 3098 567 
Q 2575 -91 1691 -91 
Q 1453 -91 1209 -44 
Q 966 3 703 97 
z
M 1959 2075 
Q 2384 2075 2632 2365 
Q 2881 2656 2881 3163 
Q 2881 3666 2632 3958 
Q 2384 4250 1959 4250 
Q 1534 4250 1286 3958 
Q 1038 3666 1038 3163 
Q 1038 2656 1286 2365 
Q 1534 2075 1959 2075 
z
" transform="scale(0.015625)"/>
     </defs>
     <use xlink:href="#DejaVuSans-43"/>
     <use xlink:href="#DejaVuSans-43" transform="translate(69.824219 0)"/>
     <use xlink:href="#DejaVuSans-34" transform="translate(139.648438 0)"/>
     <use xlink:href="#DejaVuSans-5f" transform="translate(203.271484 0)"/>
     <use xlink:href="#DejaVuSans-32" transform="translate(253.271484 0)"/>
     <use xlink:href="#DejaVuSans-30" transform="translate(316.894531 0)"/>
     <use xlink:href="#DejaVuSans-32" transform="translate(380.517578 0)"/>
     <use xlink:href="#DejaVuSans-35" transform="translate(444.140625 0)"/>
     <use xlink:href="#DejaVuSans-31" transform="translate(507.763672 0)"/>
     <use xlink:href="#DejaVuSans-30" transform="translate(571.386719 0)"/>
     <use xlink:href="#DejaVuSans-30" transform="translate(635.009766 0)"/>
     <use xlink:href="#DejaVuSans-39" transform="translate(698.632812 0)"/>
    </g>
   </g>
   <g id="legend_1">
    <g id="patch_7">
     <path d="M 1362.6125 88.81875 
L 1428.603125 88.81875 
Q 1430.603125 88.81875 1430.603125 86.81875 
L 1430.603125 29.10625 
Q 1430.603125 27.10625 1428.603125 27.10625 
L 1362.6125 27.10625 
Q 1360.6125 27.10625 1360.6125 29.10625 
L 1360.6125 86.81875 
Q 1360.6125 88.81875 1362.6125 88.81875 
z
" style="fill: #ffffff; opacity: 0.8; stroke: #cccccc; stroke-linejoin: miter"/>
    </g>
    <g id="line2d_25">
     <path d="M 1364.6125 35.204687 
L 1374.6125 35.204687 
L 1384.6125 35.204687 
" style="fill: none; stroke: #ab5c9a; stroke-width: 2; stroke-linecap: square"/>
    </g>
    <g id="text_15">
     <!-- Odor 1 -->
     <g transform="translate(1392.6125 38.704687) scale(0.1 -0.1)">
      <defs>
       <path id="DejaVuSans-4f" d="M 2522 4238 
Q 1834 4238 1429 3725 
Q 1025 3213 1025 2328 
Q 1025 1447 1429 934 
Q 1834 422 2522 422 
Q 3209 422 3611 934 
Q 4013 1447 4013 2328 
Q 4013 3213 3611 3725 
Q 3209 4238 2522 4238 
z
M 2522 4750 
Q 3503 4750 4090 4092 
Q 4678 3434 4678 2328 
Q 4678 1225 4090 567 
Q 3503 -91 2522 -91 
Q 1538 -91 948 565 
Q 359 1222 359 2328 
Q 359 3434 948 4092 
Q 1538 4750 2522 4750 
z
" transform="scale(0.015625)"/>
      </defs>
      <use xlink:href="#DejaVuSans-4f"/>
      <use xlink:href="#DejaVuSans-64" transform="translate(78.710938 0)"/>
      <use xlink:href="#DejaVuSans-6f" transform="translate(142.1875 0)"/>
      <use xlink:href="#DejaVuSans-72" transform="translate(203.369141 0)"/>
      <use xlink:href="#DejaVuSans-20" transform="translate(244.482422 0)"/>
      <use xlink:href="#DejaVuSans-31" transform="translate(276.269531 0)"/>
     </g>
    </g>
    <g id="line2d_26">
     <path d="M 1364.6125 49.882812 
L 1374.6125 49.882812 
L 1384.6125 49.882812 
" style="fill: none; stroke: #8a6ea8; stroke-width: 2; stroke-linecap: square"/>
    </g>
    <g id="text_16">
     <!-- Odor 2 -->
     <g transform="translate(1392.6125 53.382812) scale(0.1 -0.1)">
      <use xlink:href="#DejaVuSans-4f"/>
      <use xlink:href="#DejaVuSans-64" transform="translate(78.710938 0)"/>
      <use xlink:href="#DejaVuSans-6f" transform="translate(142.1875 0)"/>
      <use xlink:href="#DejaVuSans-72" transform="translate(203.369141 0)"/>
      <use xlink:href="#DejaVuSans-20" transform="translate(244.482422 0)"/>
      <use xlink:href="#DejaVuSans-32" transform="translate(276.269531 0)"/>
     </g>
    </g>
    <g id="line2d_27">
     <path d="M 1364.6125 64.560937 
L 1374.6125 64.560937 
L 1384.6125 64.560937 
" style="fill: none; stroke: #88acd7; stroke-width: 2; stroke-linecap: square"/>
    </g>
    <g id="text_17">
     <!-- Odor 3 -->
     <g transform="translate(1392.6125 68.060937) scale(0.1 -0.1)">
      <use xlink:href="#DejaVuSans-4f"/>
      <use xlink:href="#DejaVuSans-64" transform="translate(78.710938 0)"/>
      <use xlink:href="#DejaVuSans-6f" transform="translate(142.1875 0)"/>
      <use xlink:href="#DejaVuSans-72" transform="translate(203.369141 0)"/>
      <use xlink:href="#DejaVuSans-20" transform="translate(244.482422 0)"/>
      <use xlink:href="#DejaVuSans-33" transform="translate(276.269531 0)"/>
     </g>
    </g>
    <g id="line2d_28">
     <path d="M 1364.6125 79.239062 
L 1374.6125 79.239062 
L 1384.6125 79.239062 
" style="fill: none; stroke: #8eced8; stroke-width: 2; stroke-linecap: square"/>
    </g>
    <g id="text_18">
     <!-- Odor 4 -->
     <g transform="translate(1392.6125 82.739062) scale(0.1 -0.1)">
      <use xlink:href="#DejaVuSans-4f"/>
      <use xlink:href="#DejaVuSans-64" transform="translate(78.710938 0)"/>
      <use xlink:href="#DejaVuSans-6f" transform="translate(142.1875 0)"/>
      <use xlink:href="#DejaVuSans-72" transform="translate(203.369141 0)"/>
      <use xlink:href="#DejaVuSans-20" transform="translate(244.482422 0)"/>
      <use xlink:href="#DejaVuSans-34" transform="translate(276.269531 0)"/>
     </g>
    </g>
   </g>
  </g>
 </g>
 <defs>
  <clipPath id="p11a258eec0">
   <rect x="40.603125" y="22.10625" width="1395" height="332.64"/>
  </clipPath>
 </defs>
</svg>
